<svg xmlns="http://www.w3.org/2000/svg" xmlns:xlink="http://www.w3.org/1999/xlink" viewBox="1472.5 45.5 166.059 69.024">
  <defs>
    <style>
      .cls-1 {
        fill: #fff;
        stroke: rgba(0,0,0,0);
      }

      .cls-2 {
        filter: url(#Path_11);
      }
    </style>
    <filter id="Path_11" x="1472.5" y="45.5" width="166.059" height="69.024" filterUnits="userSpaceOnUse">
      <feOffset dx="5" dy="5" input="SourceAlpha"/>
      <feGaussianBlur stdDeviation="3" result="blur"/>
      <feFlood flood-opacity="0.302"/>
      <feComposite operator="in" in2="blur"/>
      <feComposite in="SourceGraphic"/>
    </filter>
  </defs>
  <g class="cls-2" transform="matrix(1, 0, 0, 1, 0, 0)">
    <path id="Path_11-2" data-name="Path 11" class="cls-1" d="M37.71,49.352a4.556,4.556,0,0,1-.74-.777.411.411,0,0,1-.037-.185.735.735,0,0,1,.074-.333.657.657,0,0,0,.074-.3,2.464,2.464,0,0,0-.111-.777q-.074-.481-.111-.944t-.037-.907a7.9,7.9,0,0,1,.092-1.221,5.406,5.406,0,0,1,.352-1.221,10.441,10.441,0,0,0,.574-2.257q.166-1.184.241-2.387t.092-2.424q.019-1.221.13-2.331a3.043,3.043,0,0,0-.611-.944,1.547,1.547,0,0,1-.352-1.129,1.373,1.373,0,0,1,.444-1.092,3.922,3.922,0,0,0,.777-.944q-.074-.222.111-.3L39.116,25q.037-.407.13-.888t.129-.888q.074-.851.074-1.665t.074-1.628l.041-.4q-.105.23-.226.441a2.133,2.133,0,0,0-.87.333,2.853,2.853,0,0,1-.611.333,6.328,6.328,0,0,1-1.129.055q-.648-.019-1.166.019-1,.074-1.98.222t-1.943.37a.608.608,0,0,0-.148.019.088.088,0,0,0-.074.093.328.328,0,0,0,.037.148.33.33,0,0,1,.037.148q0,.111-.222.111a.583.583,0,0,1-.555-.259q-1.184.3-2.368.611t-2.368.611q-.592.111-1.166.222a10.752,10.752,0,0,0-1.166.3,2.063,2.063,0,0,0-.592.259l-.592.37q-.185-.037-.333-.055a2.38,2.38,0,0,0-.3-.019,4.445,4.445,0,0,0-2.554.888h-.259a.9.9,0,0,1-.518-.111q-.333-.037-.407.2a1.019,1.019,0,0,1-.259.426,14.119,14.119,0,0,0-2.479.444q-1.221.333-2.405.722t-2.387.777a18.824,18.824,0,0,1-2.424.611,8.752,8.752,0,0,0-.148,1.7,12.924,12.924,0,0,0,.13,1.7A3.81,3.81,0,0,0,8.7,32.847v.074a.265.265,0,0,1-.148.259.265.265,0,0,0-.148.259,7.778,7.778,0,0,0,.2,1.813q.2.851.426,1.665t.426,1.628a6.844,6.844,0,0,1,.2,1.665q0,.222-.018.426t-.056.426a1.227,1.227,0,0,0,.37.555,2.245,2.245,0,0,1,.444.518,1.72,1.72,0,0,1,.037.333v.37a3.778,3.778,0,0,1-.148,1.11,5.363,5.363,0,0,1-.37.907q-.222.426-.481.851a7.485,7.485,0,0,0-.481.944,3.185,3.185,0,0,1-.592.074,1.359,1.359,0,0,1-.907-.3,2.915,2.915,0,0,1-.611-.722q-.259-.426-.5-.87a2.7,2.7,0,0,0-.574-.74q.037-.185.055-.333a2.7,2.7,0,0,0,.019-.333,4.428,4.428,0,0,0-.241-1.443,13.036,13.036,0,0,0-.537-1.332,16.563,16.563,0,0,0-.259-2.479,16.427,16.427,0,0,0-.629-2.405q.074-.444.111-.87t.037-.833a20.842,20.842,0,0,0-.111-2.147,12.478,12.478,0,0,1-.037-2.146,2.315,2.315,0,0,0-.222-.315,1.118,1.118,0,0,1-.185-.315H3.627a6.1,6.1,0,0,0-1.073.093,5.884,5.884,0,0,1-1.036.092,2.7,2.7,0,0,1-.333-.018q-.148-.019-.333-.055a2.932,2.932,0,0,1-.629-.925A2.7,2.7,0,0,1,0,27.259a2.611,2.611,0,0,1,.444-1.48q.925-.222,1.832-.537a13.035,13.035,0,0,0,1.758-.759,6.809,6.809,0,0,0,.13-1.11,1.768,1.768,0,0,1,.389-1.036A1.5,1.5,0,0,0,4.2,21.8a.783.783,0,0,1-.241-.574,2.082,2.082,0,0,1,.074-.481,2.286,2.286,0,0,0,.518-1.036q.148-.629.259-1.332t.241-1.406a3.738,3.738,0,0,1,.463-1.258,4.7,4.7,0,0,1-.111-.648,6.209,6.209,0,0,1-.037-.648,7.616,7.616,0,0,1,.055-.907,3.9,3.9,0,0,1,.2-.87,4.071,4.071,0,0,1-.666-1.129A3.419,3.419,0,0,1,4.7,10.236,1.475,1.475,0,0,1,5.884,8.682q-.037-.148-.055-.259A1.346,1.346,0,0,1,5.81,8.2,1.168,1.168,0,0,1,6,7.571a3.314,3.314,0,0,0,.3-.592,2.349,2.349,0,0,1-.185-.814,1.266,1.266,0,0,1,.111-.537A3.031,3.031,0,0,0,6.4,5.092a6.525,6.525,0,0,0,.166-.666,1.382,1.382,0,0,1,.2-.518.923.923,0,0,1,.389-.333,1.922,1.922,0,0,1,.759-.111,2.821,2.821,0,0,1,1.573.5,3.929,3.929,0,0,1,1.166,1.129,2.481,2.481,0,0,0,.722-.167q.315-.129.592-.241t.592-.2a2.093,2.093,0,0,1,.759-.055.613.613,0,0,1,.389-.352,4.353,4.353,0,0,1,.574-.148,2.634,2.634,0,0,0,.555-.166.563.563,0,0,0,.333-.407.541.541,0,0,0,.333.111,1.28,1.28,0,0,0,.37-.055,1.414,1.414,0,0,1,.407-.055.5.5,0,0,1,.37.148,7.887,7.887,0,0,1,2.054-.759,11.96,11.96,0,0,1,2.165-.278A17.7,17.7,0,0,1,26.256.54,31.488,31.488,0,0,1,31.937.022q.407,0,.8-.019a3.1,3.1,0,0,1,.759.055A5.455,5.455,0,0,1,34.4.318a8.841,8.841,0,0,1,1,.444,7.989,7.989,0,0,1,.944.574,9.319,9.319,0,0,1,.74.574,3.178,3.178,0,0,1,.3,1.3,4.349,4.349,0,0,1-.037.573,4.332,4.332,0,0,0-.037.574,3.2,3.2,0,0,0,.185,1,1.3,1.3,0,0,0-.37-.037.979.979,0,0,0-.555.148,2.658,2.658,0,0,0-.407.333q-.185.185-.352.333a.489.489,0,0,1-.315.148,1.031,1.031,0,0,1-.5-.111q-.2-.111-.407-.241a2.785,2.785,0,0,0-.426-.222,1.007,1.007,0,0,0-.518-.055V5.5a.54.54,0,0,0-.259-.537.951.951,0,0,1-.407-.389,8.017,8.017,0,0,1-1.092-.148,5.373,5.373,0,0,0-1.092-.111,1.375,1.375,0,0,0-1.147.518,1.114,1.114,0,0,1-.315-.185.411.411,0,0,0-.352-.074h-.111A18.115,18.115,0,0,0,24.943,5q-1.924.426-3.812,1.036T17.356,7.349q-1.888.7-3.775,1.221a3.182,3.182,0,0,1-.925.87,7.377,7.377,0,0,1-.944.463q-.463.185-.907.37a1.85,1.85,0,0,0-.759.592,2.907,2.907,0,0,0-.481,1.129,7.309,7.309,0,0,0-.093,1.98.954.954,0,0,0-.222.481q-.037.259-.074.5a2.818,2.818,0,0,1-.111.463,1.04,1.04,0,0,1-.259.407q.074.37.111.74t.037.74a9.125,9.125,0,0,1-.518,3.035A1.231,1.231,0,0,1,8.623,21a2.33,2.33,0,0,1-.111.74,2.334,2.334,0,0,0-.111.74,1.331,1.331,0,0,0,.148.666q.222,0,.259.148H9.03a1.965,1.965,0,0,0,1.147-.333,1.786,1.786,0,0,1,1.036-.333.6.6,0,0,1,.259.074.6.6,0,0,0,.259.074q.259,0,.222-.185t.185-.259l1.332-.222q1.258-.222,2.387-.537a9.973,9.973,0,0,0,2.239-.944,1.49,1.49,0,0,0,.592.111,2.355,2.355,0,0,0,.629-.092,2.354,2.354,0,0,1,.629-.093.923.923,0,0,1,.407.074,1.931,1.931,0,0,1,.555-.241.465.465,0,0,0,.37-.426h.074a.3.3,0,0,1,.222.074.3.3,0,0,0,.222.074h.148a9.673,9.673,0,0,1,1.406-.555q1.036-.259,2.22-.463a6.557,6.557,0,0,0,2.109-.722,6.361,6.361,0,0,0,2.091-.352,6.254,6.254,0,0,1,2.054-.352,2.582,2.582,0,0,1,.888.148,2.411,2.411,0,0,1,.87-.37,1.822,1.822,0,0,0,.833-.407q.222.037.463.055t.5.019a7.167,7.167,0,0,0,2.128-.315,13.143,13.143,0,0,1,2.091-.463,1.844,1.844,0,0,1,.245.35l.033-.35q.166-1.776.166-3.553,0-.851-.056-1.7a11.55,11.55,0,0,0-.241-1.7q-.629.185-1.388.389a2.971,2.971,0,0,0-1.277.685h-.3a4.369,4.369,0,0,0-1.795.37q-.833.37-1.684.7a2.471,2.471,0,0,1-.74.241,6.8,6.8,0,0,0-.777.166.961.961,0,0,0-.407.222,1.573,1.573,0,0,1-.407.259l-.629.148a.273.273,0,0,0-.222.333.269.269,0,0,1-.185.333.646.646,0,0,1-.518.166q-.333-.018-.518-.018h-.148A15.735,15.735,0,0,1,26.96,14.51a5.9,5.9,0,0,1-2.054.611l-.814.518a1.687,1.687,0,0,1-.925.259,1.331,1.331,0,0,1-.666-.148,3.709,3.709,0,0,1-.463-1,2.259,2.259,0,0,0-.574-.962.909.909,0,0,0,.241-.5,5.693,5.693,0,0,1,.13-.574q1.11-.481,2.239-.925a14.143,14.143,0,0,0,2.165-1.073,1.126,1.126,0,0,0,.333.037,1.886,1.886,0,0,0,.666-.111,6.182,6.182,0,0,0,.592-.259,6.182,6.182,0,0,1,.592-.259,1.587,1.587,0,0,1,.7-.074A14.237,14.237,0,0,1,31.789,8.9a11.825,11.825,0,0,0,2.665-1.221.623.623,0,0,1,.315.074.551.551,0,0,0,.278.074.293.293,0,0,0,.185-.037,1.227,1.227,0,0,1,.592-.426,7.664,7.664,0,0,1,.759-.222,3.748,3.748,0,0,0,.74-.259.836.836,0,0,0,.463-.537.877.877,0,0,0,.555.148A2.646,2.646,0,0,0,39.5,6.239a2.645,2.645,0,0,1,1.166-.259.7.7,0,0,1,.278.055.7.7,0,0,0,.277.055q.3,0,.315-.185a.49.49,0,0,1,.2-.333q2.257-.407,4.5-.74A30.758,30.758,0,0,1,50.773,4.5a1.345,1.345,0,0,1,1.48,0q.629-.074,1.258-.111t1.258-.037a24.452,24.452,0,0,1,2.961.185,23.2,23.2,0,0,1,3.016.574,16.2,16.2,0,0,1,2.868,1.036q.156.074.31.151V2.776h19.03q10.21,0,15.939,5.417t5.73,16.043a34.4,34.4,0,0,1-1.736,11.494,18.866,18.866,0,0,1-4.723,7.674A20.987,20.987,0,0,1,83.3,48.962H63.577V43.337l2.292-.208q.188-.019.359-.052a3.483,3.483,0,0,1-.744-.126,1.676,1.676,0,0,1-.759-.518h-1.85a1.97,1.97,0,0,1-.759-.241q-.5-.24-1.11-.5t-1.3-.481a4.153,4.153,0,0,0-1.277-.222h-.222a2.77,2.77,0,0,0-.944-.5q-.537-.166-1.092-.3T55.1,39.915a2.948,2.948,0,0,1-.888-.407q-.37-.259-.851-.537a1.718,1.718,0,0,0-1-.241,10.61,10.61,0,0,0-1.462-.7q-.759-.3-1.536-.555l-1.517-.555a13.417,13.417,0,0,1-1.48-.7.462.462,0,0,1-.259,0,1.085,1.085,0,0,0-.259-.037q-.222,0-.259.148a2.855,2.855,0,0,0-.574-.444,4.043,4.043,0,0,1-.611-.444,2.755,2.755,0,0,1-.278.056,2.266,2.266,0,0,1-.315.019,2.819,2.819,0,0,1-.648-.074,4.987,4.987,0,0,1-.611-.185,5.692,5.692,0,0,0-.444,1.665q-.111.925-.166,1.906t-.13,1.961a7.864,7.864,0,0,1-.333,1.795,2.435,2.435,0,0,1,.074.592V43.8a2.256,2.256,0,0,0,.185,1q-.074.333-.13.629t-.13.592q.037.407.055.759t.019.759v.629a3.063,3.063,0,0,1-.074.666q-.37.222-.74.426a5.215,5.215,0,0,0-.74.5,1.079,1.079,0,0,0-.888-.555,1.091,1.091,0,0,0-.2.5.331.331,0,0,1-.352.315Q38.043,49.611,37.71,49.352Zm45.731-7.057a11.1,11.1,0,0,0,9.307-4.306q3.334-4.306,3.334-12.5,0-15.974-13.543-15.974H76.356V39.175q.412-.036.84-.036v.074a1.554,1.554,0,0,0,.241.833,7.081,7.081,0,0,1,.426.8,1.8,1.8,0,0,1-.518,1.166,1.463,1.463,0,0,1-.432.288Zm-20.2-4.415a.242.242,0,0,0,.111.241.777.777,0,0,0,.241.074,1.027,1.027,0,0,1,.259.074.453.453,0,0,1,.2.167h.37a3.584,3.584,0,0,1,1.48.315,3.586,3.586,0,0,0,1.48.315A1.516,1.516,0,0,0,67.883,39V8.888L66.9,8.836l.046.03a.257.257,0,0,1-.019.111.257.257,0,0,0-.019.111,1.4,1.4,0,0,0,.241.777,1.594,1.594,0,0,1,.241.888,3.371,3.371,0,0,1-.167,1.036,2.726,2.726,0,0,0-.13,1.036q-.407.592-.685,1.073a3.038,3.038,0,0,0-.352,1.221,9.029,9.029,0,0,0-1.184,1.462q-.518.8-1.055,1.554a9.248,9.248,0,0,1-1.2,1.388,4.984,4.984,0,0,1-1.591,1,2.054,2.054,0,0,1-.3.814h-.777a.828.828,0,0,1-.37.444l-.518.3a1.38,1.38,0,0,0-.426.37,1.032,1.032,0,0,0-.166.629.413.413,0,0,0-.185-.037,1.549,1.549,0,0,0-.87.37q-.5.37-.8.592-.629.444-1.277.814a3.588,3.588,0,0,0-1.129,1.036A20.224,20.224,0,0,0,51.4,27.315a12.253,12.253,0,0,1-2.886,1.314,4.238,4.238,0,0,1-1.388.981q-.8.352-1.536.759v.111a.909.909,0,0,0,.222.574,2.4,2.4,0,0,0,.518.481,1.781,1.781,0,0,0,.648.277,1.272,1.272,0,0,0,.611,0,6.037,6.037,0,0,0,1.7,1.073q.962.407,2,.74t2.035.7a9.272,9.272,0,0,1,1.85.925h.888a5.626,5.626,0,0,0,2.017,1.11q1.166.37,2.239.666a2.839,2.839,0,0,0,1.129.611,4.606,4.606,0,0,0,1.314.2h.222a.818.818,0,0,0,.259-.037ZM50.662,7.423l-1.924.148q-.407.037-.851.037a4.152,4.152,0,0,0-.814.074,3.367,3.367,0,0,0-.518.166q-.333.13-.7.259t-.722.278a5.529,5.529,0,0,1-.611.222,3.651,3.651,0,0,1,.037.518v.481q0,.555-.037,1.11a8.542,8.542,0,0,1-.148,1.11,2.913,2.913,0,0,1-.111.444,2.93,2.93,0,0,0-.111.444,3.42,3.42,0,0,0-.074.74v.7q-.074.851-.111,1.665t-.111,1.665q-.222,2.442-.463,4.848t-.315,4.848a10.788,10.788,0,0,0,2.331-.777q1.11-.518,2.183-1.129t2.146-1.2a14.252,14.252,0,0,1,2.257-1,2.477,2.477,0,0,1,.722-.666,2.477,2.477,0,0,0,.722-.666.807.807,0,0,0,.555-.166,1.106,1.106,0,0,1,.481-.241q1.776-1.554,3.627-2.924a44.693,44.693,0,0,0,3.553-2.924,3.391,3.391,0,0,1,.5-1.018q.352-.5.685-1.018a11.1,11.1,0,0,0,.592-1.036,2.449,2.449,0,0,0,.259-1.11,1.289,1.289,0,0,0-.166-.7,1.882,1.882,0,0,0-.426-.463q-.259-.2-.537-.389a2.044,2.044,0,0,1-.5-.481q-.962-.3-1.887-.666a16.934,16.934,0,0,0-1.887-.629q-.481-.111-.962-.2a5.085,5.085,0,0,0-.962-.092h-.814q-.222-.037-.463-.093T54.622,7.5Q54.1,7.423,53.6,7.386t-1.018-.037Q51.625,7.349,50.662,7.423Zm59.1,41.539V43.337l2.292-.208q2.014-.208,2.014-1.945V8.888L110.11,8.68v-5.9H129.7q15,0,15,11.6,0,6.39-6.39,9.723a11.931,11.931,0,0,1,6.424,3.82,10.872,10.872,0,0,1,2.327,7.223q0,6.737-4.549,10.279t-13.231,3.542Zm12.779-6.529h6.528q9.029,0,9.029-7.362a6.459,6.459,0,0,0-2.257-5.313,9.925,9.925,0,0,0-6.424-1.841h-6.876Zm0-20.7h5.139q4.306,0,6.355-1.771A6.212,6.212,0,0,0,136.085,15q0-3.195-2.049-4.514a10.856,10.856,0,0,0-5.869-1.32h-5.626Z" transform="translate(1477 50)"/>
  </g>
</svg>
