<svg xmlns="http://www.w3.org/2000/svg" xmlns:xlink="http://www.w3.org/1999/xlink" viewBox="721 218 478.462 312.314">
  <defs>
    <style>
      .cls-1 {
        fill: url(#linear-gradient);
      }

      .cls-2, .cls-3 {
        fill: #fff;
      }

      .cls-2 {
        font-size: 57px;
        font-family: 'RockSalt-Regular', 'Rock Salt';
      }

      .cls-3 {
        font-size: 55px;
        font-family: 'BreeSerif-Regular', 'Bree Serif';
      }

      .cls-4 {
        filter: url(#DATABASE);
      }

      .cls-5 {
        filter: url(#Family_Recipes);
      }
    </style>
    <linearGradient id="linear-gradient" x2="0" y2="1" gradientUnits="objectBoundingBox">
      <stop offset="0" stop-color="#43c6ac"/>
      <stop offset="1" stop-color="#f8ffae"/>
    </linearGradient>
    <filter id="Family_Recipes" x="822.701" y="259.268" width="285" height="206" filterUnits="userSpaceOnUse">
      <feOffset dx="3" dy="3" input="SourceAlpha"/>
      <feGaussianBlur stdDeviation="2.5" result="blur"/>
      <feFlood flood-opacity="0.4"/>
      <feComposite operator="in" in2="blur"/>
      <feComposite in="SourceGraphic"/>
    </filter>
    <filter id="DATABASE" x="827.363" y="413.712" width="275" height="89" filterUnits="userSpaceOnUse">
      <feOffset dx="3" dy="3" input="SourceAlpha"/>
      <feGaussianBlur stdDeviation="2.5" result="blur-2"/>
      <feFlood flood-opacity="0.4"/>
      <feComposite operator="in" in2="blur-2"/>
      <feComposite in="SourceGraphic"/>
    </filter>
  </defs>
  <g id="Group_2" data-name="Group 2" transform="translate(-2934.992 -1603.588)">
    <path id="Path_1" data-name="Path 1" class="cls-1" d="M18.75,209.539c-.326.259-.744.449-.686.958C17.924,209.358,18.168,209.177,18.75,209.539Zm42.769-19.175c-.233-.328-.477-.673-.756-1.052ZM7.2,204.269l-3.769-2.588,4.9,4.718Zm6.793,12.145-8.142-9.488,6.4,8.962c-.07-.5-.221-1.544,1.745.526Zm250.763-124.7c-2.85-4.563-5.746-7.358-7.374-10.222.1.992,2.326,4.986,4.339,8.583C260.848,87.992,261.6,88.32,264.756,91.719ZM261.72,90.08a53.162,53.162,0,0,0,2.768,5.288C263.977,94.212,262.883,92.21,261.72,90.08Zm-53.679,32.071c-3.827-5.745-9.433-14.75-5.7-7.582l3.792,6.9c-.047-1.38.779-.725,1.919.681ZM131.18,157.284a15.024,15.024,0,0,0-2.431-4.192,18.657,18.657,0,0,0,2.443,4.184ZM239,110.7l-.3-.388h.174l-.2-.069c-1.71-2.174-2.954-3.39-2.117-.716-2.4-.785-4.56-1.406-2.943-.587,1.082.319,2.082.6,3.024.863.14.405.3.863.523,1.441.489.664.779.983,1.163,1.535-.093-1.277-.128-2.355.686-2.07ZM14.679,215.362c-.174-.483.151-.664.372-.906C14.458,214.111,14.249,214.292,14.679,215.362ZM252.95,104.744C253.124,104.157,252.566,103.967,252.95,104.744Zm2.524,2.9a16.9,16.9,0,0,0-1.78-1.855,17.949,17.949,0,0,0,1.756,1.863Zm-2.024-3.192c.337.259.558.388.779.543C253.6,103.821,253.124,103.122,253.45,104.451Zm-.884.863c.186-.19.616.06,1.163.483a6.069,6.069,0,0,1-.744-1.044A1.668,1.668,0,0,1,252.566,105.313ZM47.131,194c-.291-.276-.6-.569-.954-.863Zm208.413-91.865c.2-.526,1.373,1.078,2.326,2.2-.954-1.5-2.326-3.537-2.629-4.235Zm-.291-2.036v-.242a.532.532,0,0,0,.012.276Zm-.651,10.351c1.291,1.553-4.653-8.272-2.908-5.71-.361-.681-.64-1.156-.837-1.5,1.28-.569-.884-1.958-4.059-3.562l3.617,3.243c.523,1.863,4.769,11.127,4.2,7.565ZM3.815,209.531,0,207.055l5.269,4.46Zm6.979,11.041c-.186-.509-.558-1.51,1.605.449l-9.1-8.945ZM247.518,87.509c5.246,2.812,3.489,3.4,2.489.112-.628-.25-.977-.423-1.431-.621C248.472,87.2,248.263,87.38,247.518,87.509Zm1.058-.518C249.019,86.052,243.924,84.9,248.577,86.992Zm-.721,5.02-3.489-3.6c-3.2-1.561-4.839-1.078-6.665-2.674,1.373,2.476,4.641,3.959,10.166,6.28Zm6.234,3.5c3.792,2.329.268,0-2-2.053l2.989,3.347c2.256,1.1,6.5,3.554-.989-1.285Zm-9.933,1.725a39.678,39.678,0,0,1-9.073-3.2c2.826,1.579,7.979,3.735,11.713,5.624Zm-13.225.638L224.662,93.9l9.305,6.15Zm-5.653,3.821c-1.966-1.725-.768-2.087,4.571-.647-5.292-3.174-10.143-4.02-13.237-6.167.384,1.277,4.734,4.235,8.677,6.849Zm5.665,3.916c-1.163-.923-3.338-2.364-5.665-3.916a39.986,39.986,0,0,0,5.676,3.951ZM247.89,104.1a.418.418,0,0,0-.128.078c.849.405,1.14.526.14-.043Zm-3.3,2.346c.163.121.221.207.384.328.768.319,1.035.38-.372-.293Zm-2.036-.647a3.78,3.78,0,0,1-.314-.25c-1.908-.69-1.012-.276.314.285Zm26.694,8.246-1.791-.863a16,16,0,0,0,1.791.906ZM217.067,258.112l.489,1.993a6.428,6.428,0,0,0-.489-1.993Zm5.164-1.441-2-3.019c.9,1.751,1.652,2.959,1.942,3.01Zm25.682-28.612a37.071,37.071,0,0,0,5.246,3.036Zm-53.7,46.1,2.815,7.367c1.245-.414-1.175-3.847-2.861-7.367ZM100.6,286.344c-.151-.319-.279-.466-.442-.863.221.975.326,1.052.4.854ZM224.569,123.557C224.278,122.918,223.639,123.1,224.569,123.557ZM140.462,259.069c-.116-.224-.209-.362-.361-.664C140.555,261.536,140.636,261,140.462,259.069ZM283.25,210.989a4.3,4.3,0,0,0-.337-.267l-.349-.095Zm2.547-4.624.488.19Zm-67.753,49.228-.174.259c.151.035.2-.069.163-.259ZM104.055,285.4l.2.25a.617.617,0,0,0-.186-.242Zm59.321-3.7a1.568,1.568,0,0,1-.128.164A.175.175,0,0,0,163.376,281.695Zm86.736-53.42c-1.314-1.018-2.675-2.191-4.048-3.381a17.483,17.483,0,0,0,4.048,3.39Zm-56.471,44.518c0-.052-.07,0-.116-.069.2.474.419.958.64,1.423Zm46.91-9.3,5.385,4.934-1.745-2.363c-2.233-2.415-2.7-2.458-3.652-2.57Zm-18.61,5.046.454.095-6.618-8.919Zm-7.619,15.328a.3.3,0,0,0,.442-.233A.405.405,0,0,0,214.322,283.868Zm-.9,1.725c.663.147.593-1.164.9-1.725-1.675-.552-6.9-8.453-.907,1.725ZM438.379,48.141c.837.518-1.314-6.538-1.559-7.824C436.088,42.068,438.926,49.978,438.379,48.141Zm-5.9,17.787-.733-2.881.8,7.3ZM422.944,67.6c2.64,5.848,3.28,5.176,3.7,3.588s.628-4.235,2.187-2.277l1.163,2.665-2.4-9.747C425.945,63.745,425.631,70.637,422.944,67.6ZM407.951,43.078c2.152,4.529.372,4.218,1.838,1.164-.314-.474-.465-.759-.686-1.113A1.532,1.532,0,0,1,407.951,43.078Zm1.163.052C410.068,42.56,406.893,39.412,409.114,43.129Zm-4.164-.69c-1.4-2.648-2.943-2.976-3.268-5.046-.582,2.588.861,5.176,3.489,9.488Zm2.478,11.4c-.593-1.1-.942-1.458,0,1.9Zm.151-1.475c1.3,3.519.221.1-.128-2.519v3.994c.942,1.846,2.524,5.667.1-1.484Zm1.407-.914c1.849,2.4,3.49,3.83,3.745,8.143C414.639,57.457,411.034,49.245,408.986,51.453ZM427.038,79.97l2.2,3.3-.663-4.14c.372,2.036-2.931-2.864-1.489.845Zm-31.4-23.178-.128-.216a10.087,10.087,0,0,1-1.431-.078c.221.026.675.1,1.582.293ZM281.18,191.425l-2.2-2.941a12.228,12.228,0,0,0,2.222,2.941Zm16.54,7.41,5.048,5.1-1.745-2.372c-2.094-2.45-2.536-2.536-3.28-2.726Zm-17.284,20.185c.582.112.128-1.121.221-1.648-1.5-.518-8.084-7.8-.2,1.648Zm.221-1.648c.209.069.326,0,.291-.224-.163-.043-.244.052-.268.224Zm96.123-59.277,1.314,1.725a16.521,16.521,0,0,0-1.291-1.725Zm2.326-.733-2.687-2.691a26.066,26.066,0,0,0,2.7,2.691Zm-6.63,13.042,5.816,6.314c.454-.311-2.85-3.261-5.8-6.314Zm-56.994,17.83c-.209-.3-.349-.431-.582-.794.465.958.558.992.582.8Zm44.467-11.076v.147c0,.043.047-.06,0-.147ZM376.127,156.1v.2c.14.043.116-.043,0-.2Zm-57.867,30.95.233.224a.8.8,0,0,0-.233-.224Zm53.109-17.812c-.058-.052,0,0-.1-.06l1.163,1.225Zm22.018-4.166,5.618,4.727-2.2-2.148c-2.454-2.251-2.757-2.355-3.373-2.579Zm-8.316,2.1.3.112-8.491-7.927Zm4.513,13.646c.442.155-.337-.949-.465-1.4-1.2-.578-8.514-7.479.512,1.4Zm-.349-1.561c-.14-.052-.163,0-.116.164s.268.069.163-.173ZM381.222,10.972c.721.388-5.269-5.314-6.3-6.357a83.29,83.29,0,0,0,6.3,6.357Zm10.119,14.914-2.326-2.372,5.432,6.038Zm-3.21,1.656c10.387,9.618-.5-2.217,3.641.949l2.384,2.174-7.863-8.013c.593,1.639,5.118,7.358,1.838,4.891ZM364.647,7.323c4.024,3.752,3.024,3.45,1.617.975-.465-.4-.721-.63-1.07-.923C365.194,7.47,365.089,7.513,364.647,7.323Zm.547.052C365.194,6.918,361.7,4.3,365.194,7.375Zm-2.326-.6c-2.408-2.2-3.315-2.493-4.862-4.2,1.477,2.113,3.873,4.313,7.933,7.841Zm10.061,11.015-1.256-1.561C370.6,15.3,370.23,15,372.929,17.787ZM370.719,15c2.954,2.916.174.086-1.745-2.087l2.664,3.3C373.324,17.761,376.6,20.926,370.719,15Zm7.246,6.038c-.558-1.811-7.781-8.626-7.188-6.78a41.919,41.919,0,0,1,7.188,6.78Zm23.7,19.4-3.106-3.45c1.535,1.725-3.35-2.294-.174.759ZM358.029,6.866c2.117,2.1,5.816,5.469,8.642,8.108l-2.14-2.588a76.128,76.128,0,0,1-6.5-5.521Zm8.642,8.108,3.21,3.847c.861.181-.814-1.561-3.2-3.839Zm17.3,13.9v-.19l-6.979-7.953ZM355.947,7.643l-4.653-4.968,6.979,7.548Zm-.337,1.527c-3.908-4.1-7.235-6.6-9.561-9.169.407.863,3.664,4.485,6.584,7.712C351.131,5.831,351.876,6.116,355.609,9.169ZM352.643,7.7c.814,1,2.036,2.407,4.211,4.727C355.993,11.4,354.318,9.566,352.643,7.7Zm8.875,4.822,6.223,5.745h.279c-1.338-1.251-4.8-4.5-6.514-5.745Zm6.421,5.935-.2-.181a3.808,3.808,0,0,1-.744-.095,6.146,6.146,0,0,1,.942.267Zm.151-.207h-.07c.6.569.814.75.07,0ZM377.3,24.1a92.886,92.886,0,0,0,11.853,11.947c-3.931-4.132-7.188-6.789-11.853-11.955ZM372.2,21.047l3.676,4.4,1.884,1.052C376.151,24.955,373.731,22.746,372.2,21.047Zm5.385,6.392-1.675-2-.7-.388Zm-8.945-5.176c-1.861-1.863-5.129-5.236-5.234-4.848,2.408,2.674,2.4,3.019,2.547,3.58,1.431.992,2.326,1.449,2.652,1.277Zm-2.477-3.83c.116.138.174.216.291.362.5.483.663.63-.337-.354ZM363.216,22.5l1.163,1.044L363.321,22.5Zm6.56.863c1.384,1.009,0-.5-1.7-2.372.442.681.663,1.156.535,1.311C369.439,23.109,370,23.661,369.777,23.367ZM358.971,15.6c1.373,1.164,2.571,2.122,3.7,3C360.6,16.8,357.4,14.043,358.971,15.6Zm5.746,1.63-.233-.276c-1.419-1.234-.779-.621.186.267Zm0,0c.756.906,2.163,2.4,3.4,3.735a21.019,21.019,0,0,0-1.652-2.156c-.512-.414-1.175-1.026-1.791-1.587Zm1.163,6.305-.488-.785c-1.163-.819-3.617-2.89-8.3-6.961,2.384,2.847,4.4,4.9,6.234,6.72l1.791.181Zm35.848,25.507c-.57-.509-1-.923-1.442-1.354a5.6,5.6,0,0,0,1.442,1.346Zm-6.374-6.116c2.024,1.656,2.92,2.829,4.932,4.761A52.777,52.777,0,0,0,393,40.559l.756.863c-1.954-1.423-7.363-6.09-9.968-8.436,4.9,4.58,8.7,8.117,13.853,12.749-.768-.9-3.152-3.3-2.291-2.821Zm-11.562-9.963-1.384-1.294c.174.164.686.638,1.384,1.277ZM360.134,19.589l-6.328-6.3,8.607,9.074Zm-.279,1.346-5.56-5.452,3.094,3.45Zm-25.31,15.311c-5.571-4.865-14.062-12.5-7.723-6.426l6.234,5.883C332.219,34.495,333.044,35.055,334.545,36.246Zm16.738-7a25.011,25.011,0,0,0-4.443-3.166c3.85,3.217,9.433,8.177,4.42,3.166Zm-42.49,33a37.647,37.647,0,0,0-3.489-3.726,47.55,47.55,0,0,0,3.489,3.726Zm38.023-36.16c-2.885-2.389-4.8-3.787-.849.509.663.561,1.024.863,1.605,1.311-.814-1.1-1.4-2.053-.768-1.82Zm6.072-5.348C352.713,20.228,352.248,20.072,352.888,20.745Zm1.012.906c.523.431,1.163.957,2.105,1.6-.837-.681-1.559-1.234-2.105-1.613Zm-.838-1.182c.349.224.57.336.791.466-.989-1.018-1.663-1.613-.791-.457Zm-.163.768c0-.164.442.043,1,.414a12.334,12.334,0,0,1-1.012-.906,1.088,1.088,0,0,1,.012.5ZM269.909,81.471l-.954-.863Zm82.339-64.823-.128-.207a.509.509,0,0,0,.139.216Zm1.163,1.786c-.1-.457,1.477.94,2.675,1.924-1.372-1.32-3.327-3.105-3.827-3.709Zm21.844,19.727c5.816,5.538,4.129,3.45,3.408,2.26,0,0,0,.086-.058,0C370.6,32.614,372.929,35.392,375.255,38.161Zm3.489,1.725c-3.175-3.14-.8-.578-.174.319-.209-.345-.256-.552.174-.336ZM352.05,20.78c-7.119-7.177,7.758,9.178,4.8,4.951C358.494,27.068,349.666,18.554,352.05,20.78ZM246.2,87.242l-3.489-2.657,5.13,4.529Zm.535,2.01,8.026,8.2a1.894,1.894,0,0,1-.314-.569c.279.224.721.552,1.338.992l.233.207-.186-.173.686.474-1.442-1.57c-.291-.138-.535-.25-.721-.319ZM402.008,51.16l-3.245-1.725,7.84,4.313Zm-1.256,1.1c13.69,6.97-1.791-1.57,3.245.733l3.141,1.57-8.5-4.5V49.4a24.572,24.572,0,0,1-4.653-6.582c.7,1.725,2.035,4.115,3.292,6.478l-.93-.492c.233.181.6.431,1.047.716.547,1.018,1.07,2.036,1.512,2.967l-.163-2.087c2.175,1.484,4.734,3.114,1.966,1.855Zm-17.238-7.332-1.919-1.13C380.292,43.164,379.815,42.94,383.513,44.932ZM414.686,59.6l4.106,1.941-4.443-2.484c2.2,1.294-3.92-1.613.337.6ZM383.4,47.8a10.453,10.453,0,0,0,1.5.8c1.617.776-.291-.345-2.722-1.725a4.877,4.877,0,0,1,1.221.923Zm38.756,19.08a12.9,12.9,0,0,0,1.954,1Zm3.3,61.416,1.291,1.725a11.814,11.814,0,0,0-1.233-1.725Zm-.71-3.183a33.279,33.279,0,0,0,2.617,2.743ZM404.1,90.934l2.07,1.673-6.234-5.469ZM431.365,114.4l-4.653-3.45Q429.109,112.8,431.365,114.4ZM418.059,79.5h0C419.559,80.419,419.269,80.246,418.059,79.5ZM375.464,47.52c-1-.543-1.838-.983-2.443-1.294C373.65,46.571,374.441,46.994,375.464,47.52Zm66.369,62.46-.326-.267-.267-.172Zm4.734,4.365c-8.6-6.8-7.4-6.038-5.339-4.8l-20.7-15.173Zm-4.594-6.582.361.276Zm0,.293.477.319Zm-31.033,35.961v.138c0,.043-.012-.026-.047-.138Zm-27.66.863.163.259a1.11,1.11,0,0,0-.209-.224Zm19.774-81.842.43.267ZM464,116.855l-4.385-1.553c-.186-.311-2.536-2.476-7.944-5.986.116.664-1.873-.983-6.56-3.847-5.816-4.313-16.284-12.024-27.241-19.839-3.024-2.165-6.072-4.313-9.073-6.461.407.587.8,1.164,1.163,1.725l4.653,3.347,27.718,19.839c-2.733-1.406-22.879-15.673-26.753-18.468-1.512-.293,28.032,20.521,24.426,19.037l4.653,2.916c1.7,1.458-2.943-.957.814,1.63-5.467-3.7-18.1-12.637-21.344-15.173l9.107,6.97,8.7,6.728c-2.989-2.277-17.68-12.853-20.367-14.854-.768-.276,16.377,12.464,20.309,15.147-11.317-7.582-5.316-3.347-18.913-12.818.977.906,16.819,12.387,18.61,13.56,3.931,3.381,1.71,2.062-.163.863-3.606-3.14-14.83-11.447-25.962-19.641l.186.863,1.64,1.277c11.48,8.936,22.844,17.959,22.844,17.959L420.711,95.264c13.83,10.489,14.272,12.878,11.69,11.861v-.086c-4.583-3.744-8.91-6.331-4.35-2.433-2.687-2.174-1.815-1.561-1.849-1.725-5.327-3.873-.3.259,4.455,4.244s9.305,7.763,3.059,3.209c1.71.725-3.664-3.649-9.038-7.875,4.56,4.1-1.489.388,14.47,12.939a80.89,80.89,0,0,1-9.689-7.2l4.245,4.089,4.211,4.115a78.854,78.854,0,0,0-7.421-5.9c2.594,1.363-11.632-10.834-1.093-2.657-9.747-7.875-15.121-11.981-23.147-18.753,3.955,4.2,19.971,18.028,30.416,27.706l-3.873-2.588-3.85-2.588,4.3,3.7-10.992-9.143c2.4,2.182,4.5,4.071,3.49,3.2s-2.408-2.062-3.978-3.45c.465.518,1.349,1.389,2.443,2.372-5.746-4.856-12.167-10.549-17.994-15.682l6.223,5c-3.28-2.907-6.653-5.84-9.654-8.367a9.042,9.042,0,0,1-2.2-1.829c-.954-.785-1.838-1.5-2.652-2.139l.151.164,1.884,1.725-1.594-1.389c.744.776,1.547,1.613,2.326,2.432l.163.129.582.449-.116-.06,2.757,2.243c6.839,6.254,15.016,13.974,22.67,20.029l-6.851-5.176c10.119,9.618,8.061,7.668,15.121,15.061-3.745-3.243-6.7-6.15-9.549-8.462,5.723,5.452,1.9,2.588-2-.526s-7.909-6.418-2.768-1.682c2.14,2.588,8.886,8.324,11.492,11.145-1.163-1.07-3.42-3.183-3.687-3.3l7.118,7.056c-2.815-2.372-4.85-4.943-8.468-7.668,4.943,5.529,8.247,9.342,4.152,6.366.454,1.061,4.176,4.468,7.526,7.479s6.351,5.624,5.223,5.176c-6.095-5.607-13.272-12.3-14.609-12.939,3.862,4.071,8.514,8.505,10.678,11.283l-8.933-8.807c0,.587,1.361,2.4-5.409-4.253,3.489,3.933,2.629,3.381,1.047,2.053,2.082,2.493,6.676,6.9,11.259,11.145s9.142,8.2,10.992,9.877c-7.386-6.254-3.955-2.139-14.97-12.628l-1.873-2.674c-6.037-5.176-3.129-1.915-1.163.362s2.989,3.537-6.537-5.788c1.058.5-3.222-4.468-8.27-9.256l4.036,4.839c-2.326-2.338-1.349-1.8-4.234-4.4l8.759,9.833-.535-.561.465,1.837a23.758,23.758,0,0,0-3.094-3.157l3.885,5.063a51.7,51.7,0,0,0-6.455-6.383c-3.3-2.355,18.4,20.754,9.131,11.861.279.147-.756-1-.477-.863l-4.106-3.89c8.875,9.678,8.759,10.455,8.654,11.214s-.209,1.544,8.421,11.352c-7.607-7.608-4.187-4.71-11.759-14.267l-5.548-5.339c-.454-.863,1.058.552-.419-1.466-8.026-7.893.628,2.778,4.653,8.126-1.163-1.173-3.745-4.132-6.072-6.814-.768-.561-1.9-1.406-3.082-2.294,1.512,2.036,3.722,4.554,5.9,6.961,3.047,3.364,6,6.5,6.63,7.824l-9.305-10.006c5.816,8.255-.837,1.535-2.594.543a26.794,26.794,0,0,0,1.675,2.467c1.338,1.242,2.966,2.683,5.083,4.46l-2.14-.759c2.105,2.588,3.978,4.727,3.617,4.934l-3.757-4.986-1.838-.647.721,1.19c1.745,2.864,3.571,5.866,1.9,4.313-1.547-2.217-5.548-6.435-7.6-8.954l1.977,3.45,1.943,3.5a32.609,32.609,0,0,0-1.849-2.924,3.069,3.069,0,0,1-.837-.423c-1.617-1.346-2.931-2.433-3.99-3.33l.116.19a8.051,8.051,0,0,0,1.594,1.57c-.233.181,1.966,4.313-2.14-.526l-2.826-4.037a22.916,22.916,0,0,1-2.047-2.027c.838,1.147,1.663,2.251,2.431,3.243-2.326-2.079-3.641-3.631.151,2.838L405.5,130l.733,1.587.489.345c.465.526.279.621,0,.6l.151.328-.221-.336-.582-.078c.291.535.407.863.244.811.186.173.407.362.7.6l-.826-.656a3.784,3.784,0,0,1-.535-.431l-1.431-1.164c2.082,3.355,3.489,5.641-.349.457,2.559,4.675,7.991,10.179,7.84,12.128a94.732,94.732,0,0,0-6.444-7.815c1.733,3.252,5.467,7.9,5.734,7.763,0,1.466-3.49-3.226-6.874-8.082-.151.155-1.163-.449-2.059-1.078l1.675,2.683,2.326,2.217-2.175-1.984c2,3.192,3.641,5.667,4.246,5.3,1.163,2.338-.942-.267-2.675-2.424s-3.14-3.856-.884.362l-3.21-5.538-.814-.742c.256.483.477.914.628,1.208l-.9-1.449-1.233-1.13c.116.535-.488-.1-.989-.612s-.954-.932-.256.518l2.175,2.062-2.105-1.906c.535,1.1,1.64,3.105,3.617,6.59-7.8-13.62-.081.975-3.489-4.2a32.058,32.058,0,0,1-1.849-3.977l-1.163-1.052c.36.725.965,1.855,1.966,3.649-4.408-6.573.872,3.3-1.919-.725.151,0-.558-1.2-.407-1.156-.361.25-2.326-2.588-4.56-6.185l-3.7-3.312.14.233v.129c6.723,6.582,7.421,9.118,6.083,9.342.465.863.965,1.846,1.512,2.924-.663-1.13-1.233-2.087-1.721-2.907a2.817,2.817,0,0,1-.872-.164v-.19c-.349-.336-.7-.664-1.047-.975.7,1.915,1.268,3.8-.2,1.9l-3.792-3.3h0c4.839,4.753,12.5,11.99,5.257,6.176.221.078.337.078.384,0-2.326-1.811-3.129-2.312-4.35-3.183.116.3.233.621.361.949,1.57,1.6,4.141,3.968,8.4,7.686-3.2-2.389-2.094-.949-7.863-6.133l.2.638,5.816,6.8c-1.419-1.441-5.688-5.434-7.1-6.116,2.326,1.13-6.921-8.126-3.338-5.5l-.2-.449-2.594-2.3.174.621,1.756,3.631c.1.38.209.733.291,1.07,3.268,3.364,6.525,6.7,9.305,9.661l-7.828-5.176,4.059,3.873-4.978-4.4a2.448,2.448,0,0,1-.279,1.19l3.129,2.355c-1.047-.725-2.094-1.509-3.14-2.329a1.222,1.222,0,0,1-.524.457c-.337.164-.721.224-1.047.4,2.419,2.64,3.152,3.606,7.34,8.514-3.129-2.821-5.618-5.426-8.049-7.582v.19a17.1,17.1,0,0,1,1.279,1.5h.07c.058.1.081.164.058.181.116.19.1.267,0,.259.279.492.768,1.19.43,1.052l-1.814-1.725,1.547,2.476c-.175-.164-.07.621,0,1.4,1.163,1.173,2.326,2.26,3,3.105-.8-.768-2.152-2.07-2.978-2.795v.181l6.211,6.469c-2.222-1.846-3.838-3.9-6.223-5.978,0,.6-.314.664-1.163-.983-.314-.25-.64-.5-.989-.75,4.653,5.719,7.816,9.583,3.489,6.72.616,2.286,15.121,13.508,12.678,12.689-6.141-5.581-13.376-12.24-14.853-12.758,3.827,4.1,8.526,8.5,10.643,11.317l-9.119-8.721c-.093.656,1.163,2.493-5.7-4.08,3.489,3.951,2.536,3.45.861,2.165,4.071,5.037,19.052,17.381,22.833,20.7-7.619-6.116-4.152-2.01-15.551-12.275L384.56,158.6c-12.643-10.023,11.55,13.129-8.351-5.037,1.163.414-3.106-4.563-8.386-9.212l4,4.882c-2.477-2.269-1.3-1.837-4.373-4.313,1.8,2.027,6.072,6.745,8.921,9.764l-.558-.552.279,1.984a18.413,18.413,0,0,0-3.257-3.071l3.943,5.063a39.957,39.957,0,0,0-5.071-4.779l.779,1.044c2.454,3.8-.2.621-2.838-2.5-2.245-.75,19.39,20.107,9.689,11.869.314.121-.791-.992-.488-.863l-4.432-3.692c18.959,18.718-.558,3.286,18.343,22.065-8.282-7.22-4.653-4.494-12.795-13.8l-6.095-5.012c-.465-.863,1.163.449-.372-1.535-8.84-7.427.465,2.959,4.943,8.117-3.047-2.527-13.958-14.224-11.736-10.627,2.408,4.382,14.028,13.568,15.47,16.217l-10.34-9.419c6.456,8-.977,1.725-3.036.966a26.087,26.087,0,0,0,2.5,3.028c-5.083-3.744,7.56,10.593,3.687,7.763-1.826-2.1-6.455-5.952-8.875-8.281l4.722,6.737c-1.966-2.872-7.537-8.505-12.795-14.034.2.785,3.047,3.977,3.49,4.839a69.226,69.226,0,0,0-6.2-6.53h0l7.747,9.9a7.827,7.827,0,0,0,1.884,1.389c-.267.233,2.489,4.166-2.454-.2-1.442-1.535-2.78-3.036-4.164-4.563l-.279-.19-.43-.578-1.163-1.216.721.673c-1.384-1.872-2.4-3.269-3.152-4.356,0,1.216-1.466-1.087-5.141-4.451a.483.483,0,0,1-.1.526,142.226,142.226,0,0,0,10.794,11.671c-2.792-1.777-4.443-3.14.349,2.959l-7.293-7.763,1.687,2.777-7.444-8.445c.116.19.268.4.465.656-.4-.483-.861-1.044-1.338-1.648l-.209-.233c-6.293-4.589,12.492,13.336,6.909,9.73l-6.514-6.78c1.977,2.881,12.725,14.431,4.49,6.53,3.338,4.408,10.131,9.074,10.1,11.214a77.287,77.287,0,0,0-8.212-6.9c2.326,3.062,7.1,7.168,7.374,6.961.314,3.45-23.135-22.695-16.61-12.887,5.211,4.589,11.736,13.543,13.12,12.525,2.989,4.46-10.678-9.178-4.548-1.311l-7.572-9.023c-.43,0,2.21,3.312,3.036,4.46l-6.141-6.806c4.967,6.185,3.2,5,1.943,4.244s-2.047-1.078,4.653,6.9c-10.619-12.542-.081,1.087-4.8-3.528-3.408-4.563-2.826-4.779-2.582-5.3s.093-1.121-3.187-4.934c.558,1.07,1.361,2.493,2.466,4.373l-3.745-5.84-.558-.63c-3.489-3.261,1.256,2.458-2.105-.725l-.768-1.07.442.759.314.3c1.07,1.518,1.372,2.053,0,.173l1.163,1.967c-.616-.966-2.326-3.45-4.176-6.262-.849-1.1-1.745-2.225-2.571-3.192a15.85,15.85,0,0,0-1.372-1.1,17.669,17.669,0,0,1,.826,2.588c2.175,3.114,5.816,7.806,6.793,9.6l-.512-1.639-.535-1.63c10.026,11.455,1.163,2.225,8.677,11.369-6.072-5.822,1.163,3.364-2.71-.155.209,0-.756-1.139-.547-1.139-.791.63-7.153-6.038-12.19-11.395a3.252,3.252,0,0,1-2.326.423c.93,1.2,1.931,2.415,2.943,3.519,2.187,3.45-.931-4.373,10.747,11.093-7.7-8.5-6.746-6.685-5.455-4.08s2.9,6.038-2.873.4c-3.908-6.366-7.921-9.488-10.9-14.207l-.268-.129c.535,1.786,2.489,4.416,5.653,9.178l-2.92-3.519c.744,1.285,1.4,2.458,1.815,3.312,1.977,2.985,3.175,4.736,4.106,6.159a30.385,30.385,0,0,1,3.489,7.315c-2.524-4.667-6.758-7.815-9.131-12-.5-.1-.407.587.2,1.967.454.6.931,1.234,1.466,1.906-.372-.345-.686-.612-.954-.863.326.656.733,1.415,1.163,2.269l-.5-.863c0,1.863-1.733.242-3.059-.983s-2.326-2.044-1.163,1.518l2.466,3.4c1.733,5.175.465,6.59-1.093,7.349s-3.408.759-3.745,3.45l2.431,2.381c-.372-.2-.2,1.1-.314,2.07-.116,1.121-.6,1.8-2.536-.863,0-.405-.465-2.1,0-1.673-2.117-4.037-5.537-9.911-6.711-10.756l2.826,6.245-2.664-4.727c-1.163.181,4.653,8.79,3.489,8.988a55.828,55.828,0,0,0-3.955-6.823,26.8,26.8,0,0,0,3.408,7.125c-6.235-7.694-3.373-6.288-4.408-8.333a3.034,3.034,0,0,0-2.326-1.19l.617,1.5-.279-.371c.361.75.721,1.475.977,2.062a27.026,27.026,0,0,0-2.047-3.243c-.942-.164-2.082-.906-4.234-4.951l-.116-.138c.093.328.081.535,0,.621,3.234,7.962,1.908-.543,5.816,10.256-1.163-1.872-2.326-4.27-3.489-5.176l3.489,7.763a24.065,24.065,0,0,1-1.989-1.57,23.569,23.569,0,0,1-3.955-1.3l1.221,2.044a14.393,14.393,0,0,1-1.756-2.251c-1.024-.345-2.094-.742-3.2-1.173a10.983,10.983,0,0,1,.7,3c5.955,2.329,11.1,4.313,14.667,5.546,8.037,3.407-9.305-2.631-10.468-2.588a20.02,20.02,0,0,0-4.234-1.018l.314.457a.6.6,0,0,1-.3.121c1.942,1.648,11.155,6.176,7.084,5.452l-6.537-3.847a3.077,3.077,0,0,0-1.163-.259c.686.863,1.489,1.855,2.326,2.821a24.649,24.649,0,0,0,2.943,1.725c-.57-.241-1.349-.6-2.326-1.026l1.082,1.216c5.63,3.131,6.8,5.477,17.447,10.11l-6.234,1.035c0-.552-2.326-3.028-8.817-5.391-.268,1.113-1.628.311-5.025-.863a16.783,16.783,0,0,0,1.605,1.665,4.62,4.62,0,0,1-1.954-1.786c-.837-.285-1.791-.587-2.873-.863l-2.384-1.423c1.722,1.9,3.489,3.83,5.269,5.615a14.738,14.738,0,0,1,4.234,1.725c-7.049-1.579,10.945,5.495,4.932,4.641-2.152-.949-3.862-1.725-5.257-2.372,1.419,1.441,2.571,2.588,3.257,3.373a36.778,36.778,0,0,0-6.583-4.977c-.523-.267-.954-.5-1.314-.707,1.093,1.682,2.094,3.157,2.931,4.356,3.617,6.323-5.327-6.271-6.328-6.754l-.57-.69-.593-.457.4.224c-1.64-1.924-2.245-2.191-2.326-1.579.791.526,1.407.966,1.919,1.354q-1-.6-1.919-1.277a18.745,18.745,0,0,0,1.163,4.244l.454.138c.512.466.326.742-.093.957.675,2.1,1.047,3.683-.337,2.415l-.221-.612q-1.163-.483-2.571-1.113c.116.319.244.647.4.966-.163-.285-.361-.638-.593-1.052l-1-.449c2.64,5.814,1.245,7.875,6.5,16.915l-5.676-2c.3-.4.372-2.924-2.14-6.952a8.248,8.248,0,0,1-2.966-.466,31.617,31.617,0,0,0-4.653-3.519,1.638,1.638,0,0,0-.2,1.009l4.466,2.415c-2.652-.69-4.211-1.078,4.885,5.4l-6.514-4.2c.128.259.268.535.4.863-1.4-1.389-1.419-.957-.954.164,1.047,1.553,2.536,3.554,4.653,6.159-1.4-1.354-2.408-2.372-3.187-3.2,1.105,2.217,2,4.235.139,2.709-1.687-2.812-2.792-4.718-3.489-6.1-1.384-.863-3.489-2.251-5.9-3.744-.884-.121-1.733-.267-1.035,1.113a7.081,7.081,0,0,1,1.675,2.821l-6.8-6.952.07.2a12.634,12.634,0,0,1,3.582,4.831c.849,2.519-.942,3.856-3.013,4.054l.209-.345a20.7,20.7,0,0,0-2.873-1.941c-.081.3-.244.431-.454.431,1.373,1.622,2.326,2.846,1.71,3.14l-2.431-3.45a12.312,12.312,0,0,1-1.431-1.294h0a2.811,2.811,0,0,0,.1.354l-.233-.414a7.327,7.327,0,0,0-.826-.233,2.41,2.41,0,0,0-.7-.043,19.4,19.4,0,0,0,.6,2.053c.14.147.268.285.43.44l-.384-.3c.174.492.372,1.052.6,1.725l1.838,1.579c4.653,4.028,9.049,8,2,4.028,1.943-.069-.151-2.191-3.489-4.813.209.561.442,1.165.709,1.829l-.884-1.967-.628-.483c.71,1.725.931,2.89-.465,1.958a18.337,18.337,0,0,0-2.326-2.631c.372,1.975-1.535,2.743,11.631,11.964-4.2-2-2.826.078-10.945-6.262l1.07,1.484,2.326,3.252c1.64,2.381,3.222,4.8,3.222,4.8-1.4-1.466-5.886-5.322-7.828-5.615,1.873.285-.489-2.8-1.977-4.951s-2.082-3.45,3.652.328c-5.223-3.976-9.305-6.9-13.144-9.756l.4.75a5.008,5.008,0,0,0,2.082,1.328c-.582.362,1.163,4.71-3.78.336-.186-.233-.361-.466-.547-.707.151.44.291.863.43,1.251l1.57,1.725c5.2,5.615,11.178,11.921,15.644,17.252l-1.535-.6-3.489-1.415-4.827-2.018,4.129,3.8-11.224-9.083c2.094,2.363,3.978,4.391,2.9,3.537a45.876,45.876,0,0,1-3.757-3.6,10.445,10.445,0,0,0,1.884,2.717c-2.326-2.079-4.815-4.365-7.223-6.7l.314,2.407a61.837,61.837,0,0,0,8.712,7.461l-3.885-2.312-3.85-2.363c4.152,5.322,5.734,7.487,6.979,9.368s2.035,3.45,4.4,7.841c-3.594-3.338-5.816-6.616-8.852-8.867,2.326,3.01,2.408,3.882,1.373,3.623a24.809,24.809,0,0,1-5.339-3.148c-4.269-2.95-8.4-6.219-3.862-1.156.9,3.2,7.619,9.005,9.305,12.318-1-1.147-2.989-3.45-3.42-3.45l2.78,3.925,2.745,3.942c-2.861-2.372-3.571-5.607-7.747-8.074,2.792,6.547,4.653,11.041-.384,8.41-.628,1.535,2.792,5.115,5.967,8.246s6.095,5.805,4.187,5.676c-5.537-5.917-11.946-13.042-14.156-13.318,2.722,4.589,6.77,9.342,7.572,12.7l-7.56-9.488c-.9.949-.5,3.157-6.176-4.037,2.233,4.511.942,4.08-.744,2.752,1.035,2.916,5.06,7.66,9.305,12.076s8.828,8.505,10.538,10.265A33.242,33.242,0,0,0,240,268.445c-1.733-.992-3.769-2.588-8.665-8.16l-.291-3.278c-6.269-5.227-4.478-1.5-3.361,1.113s1.675,4.071-6.583-5.909c1.733.276-.686-5.374-5.234-10.4,1.163,2.217,2,3.856,1.361,3.882l.6,1.665c-2.047-2.5-.4-2.182-3.28-4.839,1.163,2.32,3.757,7.7,5.618,11.119l-.407-.621-1.733,2.588c-.151-.863-1.838-3.269-2.536-3.45l.768,2.959.744,2.976a16.109,16.109,0,0,0-4.513-5.891c.9,1.449,1.628,2.648,2.07,3.45a26.719,26.719,0,0,0-3.71-4.442c-2.606.086,12.62,22.8,4.327,13.8.442.1-.3-1.156.128-1.061l-3.908-4.08c6.642,10.618,5.327,11.748,4.013,12.853s-2.605,2.165,3.629,12.939c-6.816-8.108-3.117-5.176-7.212-15.906l-5.327-5.607c.163-1.035,1.7.423,1.163-1.889-3.78-4.158-4.4-3.252-3.862-.543a101.824,101.824,0,0,0,3.245,10.23c-2.605-2.846-8.7-16.389-8.9-12.076-.384,2.588,1.954,6.5,4.373,10.135s4.92,7,4.594,8.626l-7.688-10.774c1.163,4.675.081,5.245-1.524,4.537s-3.815-2.734-5.234-3.148a9.848,9.848,0,0,0,.872,3.537c-2.384-2.131-2.152.966-1.838,4.218s.721,6.607-1.058,4.968c-.721-2.45-4.443-6.9-5.955-9.652l.14,3.942.093,3.959c0-3.373-3.164-9.954-5.909-16.389-.593.914.64,4.649.4,5.667a25.55,25.55,0,0,0-3.234-7.763l.954,5.84.884,5.857a3.882,3.882,0,0,0,1.687,1.639c-.756.259-.686,4.865-4.187-.267-1-2.588-1.652-5.055-2.687-7.66,4.129,7.065,1.954.716.221-4.313-1.5,1.535-1.314-1.165-3.792-5.176a2.376,2.376,0,0,1-.337-.3,1.573,1.573,0,0,0-.186-.509h0c-1.314.6,1.849,9.549,4.653,15.044-2.815-2.113-4.025-3.761-2.978,3.355l-3.489-9.126-.4,3.209-3.3-11.326c-5.432-5.512,5.816,15.656.419,11.291l-3.2-7.979c0,3.321,4.827,16.9.081,7.53.616,5.107,6.6,10.817,4.222,13.094a34.918,34.918,0,0,0-5.886-8.238c.4,3.545,3.722,8.453,4.408,8.255-3.292,3.8-12.911-26.852-12.795-15.639,3.489,5.495,4.5,15.768,7.654,14.871.163,5.072-7.258-11.015-5.688-1.958l-2.64-10.463c-.628-.086.07,3.77.209,5.072l-2.733-8.074c1.512,7.134,0,5.659-1.163,4.693s-2.059-1.406.489,7.824c-4.106-14.5-1.163,1.121-3.815-4.313-1.873-10.351,4.653-.587.221-13.862-2.105-3.864-.5,2.743-2.524-1.026a17.987,17.987,0,0,0-.221-1.967,43.278,43.278,0,0,1-3.489-3.8c.384,3.45,1.163,7.979,1.07,9.765l1.477-3.528c4.28,13.284-.361,2.476,2.419,12.991-3.652-6.9-1.233,3.614-3.734-.578.3,0-.1-1.285.2-1.251-2.582.8-9.654-18.563-11.364-20.7.151,1.147.14,2.062-1.082.311-.4,1.855.256,7.013,2.082,11.05.3,3.839,2.326-4.606,6.281,12.939-3.966-9.816-4.164-7.815-4.362-4.986s-.419,6.5-4.211,0c-.721-7.323-4.315-11.084-4.653-16.657-1.07,1.88-.221,4.865.791,10.627l-2.326-6.159c2.163,14.328,3.268,12.464,2.326,20.452-.407-5.046-3.978-8.824-4.49-13.37-1-.285-1.279,1.725-.8,5.6l-.151-.914c-2.233,3.752-4.908-7.461-5.734,0l1.4,3.726c-.791,10.765-7.421,4.96-9.829,10.239l2.036,2.588c-.768-.483-.814,6.219-3.489.94.128-.4,0-2.156.407-1.725-1.268-4.227-3.559-10.4-4.781-11.317l1.547,6.5-1.826-4.934c-1.407.112,3.117,9.169,1.721,9.29-3.117-9.169-4.781-9.54-6.409-9.635s-3.175.1-6.223-7.91c3.082,13.491,3.152,1.5,5.816,13.8-1.012-1.932-1.942-4.4-3.141-5.322l2.547,7.876c-5.444-3.873-9.073-10.4-12.167-8.108l-.4-1.725c-2.257-2.872-2.5-1.311-.861,5.684-1.454-3.683-1.163-5.745-2.687-8.936,2.129,10.394-.151,6.849-2.64,2.527s-5.141-9.411-3.489-2.182c-.7-2.174-1.454-4.313-2.233-6.444a35.377,35.377,0,0,0-4.874-5.176c4.594,5.641,4.722,6.737,3.071,5.961l.279.423c-.14-.164-.256-.319-.4-.474a22.115,22.115,0,0,1-2.419-1.5c.14,1.294-2.233-.716-4.839-3l-2.326-2.018c-1.675-1.018-2.012-.75.931,2.777q-2.152-2.234-4.362-4.382a25.866,25.866,0,0,0,1.431,2.32c-1.163-1.5-2.408-2.976-3.629-4.442-11.2-10.687-22.926-20.124-30.568-29.328L18.866,227c-8.386-8.971,2.326-1.579-6.269-11.058l4.932,3.356c-.826-1.613-.268-1.863.244-2.191a19.79,19.79,0,0,0-2.861-2.64c.454-.517.547-1.285-4.943-5.6q3.4,2.365,7.118,4.46c-.384-.63-.884-1.363-1.512-2.234l5.444,4.158a15.747,15.747,0,0,0,2.943.863c-2.163-2.924-4.269-5.9-5.316-6.6.663-.535,1-1.354-4.048-5.986,6.688,5.176,10.968,7.392,13.958,7.962a8.209,8.209,0,0,0,2.326.112,4.221,4.221,0,0,1,3.931-1.863l.07-.06c.733-.673,1.419-1.423,2.152-2.113-.71-.673-1.431-1.328-2.059-1.906.942.8,1.652,1.38,2.187,1.786l.512-.449c-1.791-2.277-6.176-7.021-6.49-7.91l8.142,6.9a5.761,5.761,0,0,1,1.163-.405c-1.838-1.932-3.71-3.657-4.99-5.029.454-2.4,5.56.129,8.9.966l-.256-.328.3.336a6.115,6.115,0,0,0,1.721.233c-1.442-2.665-3.966-6.78-4-7.608l4.943,5.719a9.537,9.537,0,0,0-.686-1.639,46.5,46.5,0,0,1,4.118,3.787c-1.535-2.329-3.164-4.408-4.2-6.038a1.866,1.866,0,0,1,1.873-.906c-.314-.328-.663-.681-1.07-1.061l1.163,1.07c1.675.095,3.978,1.208,6.037,2.079,3.152,1.32,5.734,2.018,4.85-2.588a39.674,39.674,0,0,1,3.955,5.538,29.869,29.869,0,0,0-2.326-4.132c1.082.863,1.814.983,2.443.742.349-1.4,1.058-2.346-1.71-6.306a45.327,45.327,0,0,0,3.931,4.8c1.7-.957,4.42-.983,11.12,5.02h0c-7.712-7.289-3.234-3.89-5.92-8.177l-8.363-7.841,2.85-.121c-.3-.992.128-.707.8,0,.71.233,4.257,4.8,6.979,6.461,1.838-.164-2.21-4.736-5.327-9.394L66.3,180.039l.233-1.251c.907-.086,5.013,9.437,11.085,12.568-2.036-2.294-10.573-13.879-4.653-8.229-1.535.138,3.8,5.831,6.421,8.065l2.129-.19-9.84-10.273c2.582-.863,6.793,0,10.841.69q1.163.19,2.245.354c.058-.06.14-.052.233,0a24.39,24.39,0,0,0,4.129.311c-.279-.759-.547-1.535-.791-2.3l-1-1.294.71-1.234c.454,0,.884,2.131,1.733,4.8a7.609,7.609,0,0,0,1.931-.405c-.2-1.044,0-1.4.791-.38.081-.043.163-.078.244-.129.768.863,1.431,1.622,2,2.191l-2.012-3.45a15.884,15.884,0,0,1,6.618.863l-1.163-2.329c-10.631-13.448-8.758-13.525-4.815-11.464s9.957,6.28,7.956,1.3a30.921,30.921,0,0,0,2.4,3.45c-2.152-4.874.872-3.787,4.048-2.01s6.49,4.209,5.095,1.941L119,178.866c-6.328-11.541-7.084-13.241-1.861-10.636.349-.4,1.093-.095,2.024.535-2.152-3.692-3.292-6.452-1.07-5.969l1.733,2.372,2.117-2.519c8.759,11.464,7.351,7.427,6.293,3.554s-1.745-7.565,8.026,4.77c-.71-1.113-1.268-2.122-1.745-3.054l-.244-.233.244.224c-2.5-4.9-2.2-7.539-3.315-10.593a32.6,32.6,0,0,0,2.5,3.01c-7.886-12.982,6.293,2.519,6.549.587-1.279-3.33-4.478-7.168-7.7-11,4.408,4.615,3.641,1.4,2.326-2.51s-3.327-8.488-1.535-6.513c1.989.466,6.711,8.807,10.666,13.87.361-2.967-14.97-21.116-5.92-12.766a7.724,7.724,0,0,0,1.57,3.45c1.163.8,6.828,7.763,11.783,13.87s9.247,11.214,7.886,8.35l-3.489-3.994c-1.047-2.959,2.129.112,5.095,3.123v-1.026l-.07-.129L152.5,157.8l3.059-.224c-.256-1.018.186-.733.861,0a10.267,10.267,0,0,1,1.989,1.906l-1.012-1.466c7.177,6.651,3.129,1.268,4.525,1.57-1.047-1.527-2.326-3.3-3.489-5.1l-1.338-1.113.337-1.3c.675-.086,2.629,4.477,5.816,8.324.547.405,1.245.975,2.163,1.786l.6,1,.186.147a.235.235,0,0,1,.153-.151.383.383,0,0,1,.255,0c-.43-.863-.9-1.725-1.384-2.588-2.687-3.8-5.257-8.039-1.163-4.184-.977.1.43,2.1,2.326,4.184.268-.1.4-.543.43-1.19l-.582-1.026-1.5-1.466a3.294,3.294,0,0,1,.384-.449l-2.326-2.45a11.061,11.061,0,0,1,3.489-.449c-.523-3.278-1.012-6.107.093-4.313a2.623,2.623,0,0,1,.989.957c-.14-1.061.314-1.458.989-1.5,0-.345.1-.371.523,0a15.937,15.937,0,0,1,3.187,1.078c-.256,1.026.523,2.648,1.745,4.537l1.419.19c-1.163-2.967-.535-2.821,2.082.242h.3c-7.084-12.335-14.3-25.144-12.411-26.585.744,2.018.791,3.261,2.547,5.788s.628-.492.268-1.492c1.733,2.519,2.163,4.77,4.967,9.083-5.444-12.568,2.175-1.725,1.954-6.7,1.442,4.037,3.489,6.323,6.176,10.627-3.966-7.211-1.442-4.313.64-1.924s3.722,4.313-1.861-4.822a16.738,16.738,0,0,0,5.269,3.631c-3.164-4.934-1.326-4.615,1.605-3.192,4.083,1.967,10.317,6.1,8.386,1.078a28.776,28.776,0,0,0,2.408,3.4c-.756-1.777-.814-2.778-.43-3.243a.752.752,0,0,1,.163-.578l.07.285a2.927,2.927,0,0,1,1.8.155,6.36,6.36,0,0,1-.849-1.337c-.209-.578.07-.949,1.582-.768-.291-1.19-.721-2.821-1.407-5.176.744,2.018,1.454,3.735,2.152,5.279q1.487.293,2.919.716l-1.047-2.743,1.593,2.9q1.605.474,3.78,1.2c-2.326-6.694-.512-7.332-2.757-12.551,7.281,12.766.7-2.881,6.5,7.375a1.682,1.682,0,0,1,0-.664c-.384-1.182-.686-2.243-.9-3.174-3.3-5.753-6.735-12.275-4.653-9.583v-.267l4.211,7.7c-.256-1.993,0-3.079.326-3.355-.535-.612-1.5-2-2.629-3.692.872,1.078,1.861,2.458,2.745,3.64a.266.266,0,0,1,.279,0c.07.242.093.388,0,.423,1.326,1.725,2.187,2.493,1.431-.3,4.152,5.641,3.373,1.2,2.908-2.691s-.7-7.22,4.653.612c-1.163-1.57-2.105-2.148-.849.656.849-.664,3.21,1.673,5.141,3.347l1.163-.932c.256.2.535.388.8.569q-.593-.759-1.082-1.5c-3.85-1.932-7.293-3.994-1.838-1.622-1.3-.44-.361,0,1.233.621a13.746,13.746,0,0,1-.663-1.3c.454.535.826,1.026,1.163,1.51l.791.328-.663-1.441c-.314,0-.535.112-.547.276a1.723,1.723,0,0,0-.081-.75,4.149,4.149,0,0,0,.477.181l-.512-.975c-.4-.319-.43-.44-.209-.405l-.582-1.1c-.989-.371-2.129-.785-3.292-1.233,1.163.362,2.222.664,3.129.932l-.4-.75c-.128-3.709-.221-6.349,1.163-6.219l-4.118-8.2c3.245,2.5.07-11.679,9.829,4.856-3-6.633,3.28,1.259,3.082-1.2l1.78,3.114c1.361.423,2.524.785,3.489,1.078,0-.267-.07-.543-.093-.811l.8,1.009q1.288.383,2.629.656c-.861-1.165-1.884-2.588-2.815-3.761a3.567,3.567,0,0,1,1.163.863l-.256-.328c-.3-.38-.477-.638-.477-.638h.116l1.245.6c.837.647.942,1.3,3.141,1.561-.965-.492-1.966-1.009-3.141-1.561a.37.37,0,0,0-.14-.121c.7.19,0-.078-1.163-.483l-.128-.06h0l-.57-.2a42.353,42.353,0,0,0,4.757.776,3.322,3.322,0,0,0,1.279,2.018c.093-.811.314-1.389.861-1.328l1.012,1.786-.174-2.527a10.932,10.932,0,0,1-2.989.052c-.116-.811,0-1.432-3.268-3.606.221-.673,3.617,1.121,6.188,2.476l-.1-1.484c1.384,3.071.791,1.725.175,0q-2.136-1.287-4.083-2.734c.849.362,1.791.742,2.431.975a14.614,14.614,0,0,1,1.5,1.328c-.489-1.389-.907-2.812-.268-2.234-.407-1.251-.361-1.82,0-1.829l-7.537-3.3c2.466.414,7.246,2.588,9.073,3.45a5.236,5.236,0,0,1-.489.319l-.326-.147.244.19.081-.043.279.121-.2.06a24.437,24.437,0,0,1,2.792,2.993l1.477-.1c.71,3.45,3.222,6.6,6.2,10.86l1.594.863-.744-1.8a21.588,21.588,0,0,1,1.338,2.122c.71.388,1.4.759,2.024,1.121-.186-1.656-.465-3.58-2.745-7.988a45.763,45.763,0,0,0-3.489-4.675c.2.466.14.371-.1-.121l-.279-.362a2.5,2.5,0,0,0,.209.216c-.3-.638-.814-1.665-1.279-2.588l-.489-.423.407.276L254,104.89c1.977,1.242-.163-1.544-2.105-4.718,3.687,5.063,4.746,5.986,5.816,6.9.977.492,1.942.949,2.8,1.38.535-.638,3,.957-2.7-7.263,7.816,10.791.884.336,7.421,9.6-1.931-1.622-.651,1.855,1.047,5.969,1,.216,1.989.6,2.326.673a2.4,2.4,0,0,0,.174,1.2c.826.431,1.745.863,2.629,1.328l-.884-4.011-1.117-1.794-.151-.069.151.06c-1.454-2.062-2.838-4.054-4.094-5.917-1.372-1.035-2.617-2.053-3.873-3.01,1.163.863,2.326,1.673,3.489,2.372-1.163-1.725-2.175-3.347-3.024-4.77l-.512-.535,1.163,1.786-.814-.819,1.093,1.725-2.024-2.251-.372-.785c-4.9-5.176,2.233.311-5.979-7.962l5.013,3.942a2.239,2.239,0,0,1-.081-1.164l-1.617-1.648c-.965-.354-1.954-.656-3.047-1.035a.731.731,0,0,1,.616-.742c-.291-.5-.163-.518.233-.224,0,.069-.058.121-.081.19a1.861,1.861,0,0,1,.3,0l-.209-.173c.128-.354-.07-.966-5.3-5.408,21.9,17.312,11.492,3.2,17.145,4.77l-4.757-7.763a19.434,19.434,0,0,1-1.431-1.6l9.98,8.755c-.675-.863-1.291-1.613-1.815-2.3-1.826-1.725-3.548-3.321-4.839-4.589-.779-2.639,7.979,4.011,8.072,2.484a15.337,15.337,0,0,1-1.884-3.045,9.215,9.215,0,0,0,.686.906l-.384-.509c4.85,4.1,9.922,9.764,11.969,10.955-13.039-11.6-5.164-7.065-13.051-14.328,12.725,11.533,4.245,1.337,22.507,19.391,1.733.742-7.549-8.1-9.422-9.644,1.431.293,2.105.069-3.257-6.038,4.815,4.071-1.454-6.418,13.434,7.047-9.677-8.721-4.757-4.667-8.375-8.807l-8.537-7.7.407.069c-1.687-1.475-3.489-3.252-3.676-4.149.617.621,3.106,2.734,4.839,4.313l.256.043c-.593-.863-.186-.561.547.147.558.293,4.653,4.58,7.142,6.357,1.163.129-3.292-4.227-7.165-8.522l-1.3-1.113-.337-.992c.57.06,6.979,8.505,12.213,11.981-2.233-2.191-12.388-12.939-6.246-7.453-.965-.112,4.792,5.357,7.386,7.582l1.338.155L281.04,74.3c2.7-.664,12.294,5.176,13.958,3.286a29.453,29.453,0,0,0,4.792,4.132l-2.2-2.967c-3.99-5.641.2-.811,4.467,4.054,1.163.768,3.292,2.527,8.142,7.323l-1.384-1.208a9.876,9.876,0,0,0,1.582,1.837c.151-.155.058-.69-.361-1.725-2.92-3.028-5.641-5.728-7.212-6.357l-5.385-6.607c-25.019-25.015,4.525.716-2.326-8.022.9,1.009,2.222,2.346,3.013,3.123-6.979-8.626,9.6,5.176,5.816,1.035l7.107,6.728c-9.724-11.015-10.468-11.973-4.932-8.453a60.221,60.221,0,0,0,4.653,4.451c-4.885-5.176-9.759-10.351-7.491-9.488l2.187,2.174.163-1.872c21.588,20.944-10.957-14.086,12.864,8.393-6.048-6.262-7.072-8.738-9.643-11.886.919.863,1.919,1.811,2.989,2.743-11.131-11.567,5.095,2.7,4.339,1.1a113.359,113.359,0,0,0-10.108-9.868c9.91,8.5-8.247-11.058-4.106-7.453,1.419.561,8.479,7.919,13.411,12.482-1.326-2.45-19.727-18.917-10.073-11.153a20.391,20.391,0,0,0,2.71,3.028c1.012.7,6.9,6.038,12.562,11.11.954-1.648,2.8-1.794,9.142,6.642a6.1,6.1,0,0,1-.942-2.372L325.1,65c10.236,7.979-2.117-2.881,6.979,4.011l.675.673c.523.147.861.069.826-.492l1.163,1.6c1.524,1.07,2.71,1.941-4.118-4.96l-1.675-1.32c-.163-1.225.721-.466,1.966-.345-.965-1.061-2.233-2.821.151-.656-9-8.781-2.524-4.977-1.675-4.632.744,1.561,4.653,5.012,8.444,8.41h0c-6.8-7.1-7.258-7.884-1.535-3.036-11.2-10.963-23.123-22.66-22.879-23.807a52.418,52.418,0,0,0,4.653,4.969c2.419,2.2.081-.388-.686-1.242,2.408,2.191,3.908,4.1,7.933,7.841-10.154-10.782.291-1.337-2.652-5.546,3.106,3.45,5.548,5.443,9.538,9.161-12.7-12.421,12.294,10.066-4.513-5.71,11.632,8.626,5.106-1.794,16.424,8.134,4.8,4.382-2.21-3.157-2.117-3.537l5.56,5.452c-9.305-10.351-3.117-4.028-12.364-14.517a157.343,157.343,0,0,0,15.121,14.44L339.36,48.219l8.782,8.315c-3.082-3.45-1.466-2.312.209-1.173-9.119-9.264-7.246-9.074-12.364-14.3,12.027,11.214-2.152-3.338,9.061,7.185-1.547-1.648-2.757-3.028-3.734-4.192-5.269-4.882-11.05-10.411-8.27-8.134-.093-.129-.058-.121-.128-.224l6.979,6.53c-1.3-1.725-1.814-2.588-1.756-2.855-.675-.518-2.036-1.725-3.676-3.131,1.163.914,2.512,2.087,3.71,3.079h.175a1.248,1.248,0,0,1,.267.354c1.768,1.449,2.733,2.113.663-.259,11.41,9.557-12.12-15.1,3.268-1.829-1.628-1.328-2.489-1.811-.128.569.256-1.139,10.864,7.763,6.223,2.4l-1.163-1.078a28.456,28.456,0,0,1-2.687-2.588l-2.571-2.467c-2.222-3.166-3.745-5.434-2.8-5.339l-7.142-6.97c3.4,2.1-6.49-10.041,8.759,4.011-5.537-5.659,2.768,1.026,1.291-1.078l5.606,5.262c2.326,1.423.768-.681-.488-2.424,6.048,5.012,6.851,4.951,6.234,3.554l-.465-.3.442.25c-.686-1.527-2.943-4.546-2-4.442l1.721,1.6-2.9-4.4c4.653,4.969-3.222-3.45-1.547-2.286-2.326-2.778-.4-1.725,3.559,1.527l.942-.1c2.722,3.657,7.1,7,12.678,12.188l.442.216-3.42-3.8c1.884,1.673,3.152,3.071,4.234,4.192l.9.44a54.012,54.012,0,0,0-7.13-8.755c-1.64-1.518-3.245-2.924-4.653-4.063.361.405.279.319-.128-.1l-.372-.311.244.19c-.582-.621-1.594-1.725-2.408-2.51,1.931,1.07-.872-1.354-3.745-4.115,10.015,8.842,4.653,3.192,14.667,12.188-10.934-10,2.326,0-10.038-11.326,10.468,9.488.779.293,9.619,8.427-3.362-2.294,5.223,6.978,9.072,11.481l5.351,4.511,1.256.7-.058-.25-.244-.121c-.326-.25-.2-.25.2-.095-.3-1.216-.582-2.415-.779-3.45l-.174-.164.174.147c-.081-.431-.151-.863-.2-1.225-1.245-.647-2.326-1.216-2.792-1.5l2.78,1.406v-.155c-2.664-2.277-5.164-4.158-7.049-5.822a83.53,83.53,0,0,0-7.491-8.057c4.094,3.718,9.305,8.626,14.493,13.43a3.583,3.583,0,0,1,.163-1.777c-5.211-4.874-7.467-7.677-12.713-12.939.244.932.151,1.251-.9.552l-2.326-3.8.081.069.9.863a7.865,7.865,0,0,0,2.257,2.251c-.686-.7-1.407-1.423-2.257-2.251a.7.7,0,0,0-.1-.129c.489.4,0,0-.791-.75l-.093-.095h0l-.4-.354c1.279,1,2.326,1.794,3.28,2.407a5.3,5.3,0,0,0,1.082,1.855c4.164,2.95,7.8,8.41,7.27,6.4,2.326,2.769,7.13,7.185,6.979,7.936-.779-.707-1.5-1.363-2.163-1.993a11.87,11.87,0,0,0,1.419,3.123c2.431,1.234,4.85,2.467,4.408,2.3,1.256.63-1.535-.742-4.327-2.174l.093.173c2.652,2.51,5.246,4.977,7.572,7.237l-1.756-6.375-.779-.673-2.268-3.4c2.326,2.4,6.374,6.116,4.653,5.176l3.187,3.062-4.85-4.158,1.338,4.451.442,1.958,2.931,2.855,7.328,4.166.081.129-7.281-4.227,2.222,2.2,1.989,1.1a3.365,3.365,0,0,1-.872-1.285l1.966,1.88,2.326,1.259-.14-1.527c.326.681.6,1.32.826,1.889,2.326,1.268,4.653,2.476,7.235,3.916-2.71-1.328-5.048-2.588-7.165-3.709.1.285.186.552.256.794l1.163.621-1.163-.612c.314,1.147.174,1.846-.733,1.725l-.279-2.959-2.094-1.164.965.923c.779.863,0,.181.721,1.035a18.088,18.088,0,0,1-2.908-2.657l-2.047-1.173c1.8,1.8,3.187,3.252,3.943,4.132-4.373-3.735-3.71-2.527-1.163.328a45.842,45.842,0,0,1,5.409,3.3c-1.78-.957-3.338-1.8-4.746-2.588.442.466.919.975,1.419,1.492,4.653,2.588,9.305,5.115,13.365,7.41l-.1-1.035-.081-1.1-5.606-2.881-3.652-2.476c3.21,1.786,8.41,4.572,6.6,3.847l2.664,1.51-.14-1.544c-3.385-1.768-6.653-3.5-10.387-5.486,2.64,1.372,7.34,3.761,10.375,5.245l-.163-1.984.268,2.018c.8.388,1.489.725,1.966.94l-1.082-.621q5.049,2.452,9.747,5.27c-2.675-1.432-4.048-2.294-6.56-3.519-.93-.362,2.326,1.415,3.4,2.053-2.687-1.389-5.106-2.64-7.444-3.873l.209,1.587,1.361.742-1.349-.69.116.863.186,1.311c5.816,3.235,10.468,5.9,12.469,7.142-8.142-4.218-1.535-.173,5.816,3.985-1.977-1.009-5.222-2.985-7.316-4.158l4.478,2.916c-6.979-3.933-11.376-6.573-15.261-8.911l.361,2.5-.4.224-.3-2.924c-3.489-2.07-6.537-3.925-10.829-6.271,4,2.07,10.34,5.7,6.8,3.321-3.245-1.941-6.293-3.58-9.038-5l1.57,1.587h0l.57.561.616.354c-.4-.164-.244,0,.07.224-.279-.19-.721-.474-1.163-.733v.19l1.291.742h0c1.082.785,2.989,2.027-1.163-.3l.128.371,3.629,1.949,1.861,1.1-.163-.863c.058.3.128.587.2.863,5.816,3.45,3.106,2.079.128.526l.128.474.744.44-.744-.431q.1.38.209.742c3,1.725,5.944,3.864,12.585,7.574l-1.163-.957c4.025,2.234,7.281,4.373,10.468,6.392-8.654-4.313-2.547.863-11.469-4.244,2.92,1.6.663-.06-2.489-2.079l-4.839-2.545c-.209-.4,9.817,5.357,6.421,2.89-2.664-1.561-5.664-3.364-8.91-5.314.454,1.285.954,2.45,1.454,3.58,7.235,4.7,16.168,10.351,24.973,15.82-4.187-2.924-12.678-8.712-1.617-2.062,4.234,2.9,6.548,4.9,13.609,9.281-12.9-7.6-3.35-2.691-14.2-8.919.151.319,4.211,2.924,6.3,4.313-5.141-3.33-8.956-5.322-11.946-7.108-.582.354-6.339-2.847-7.921-3.123-1.605-.983-4.862-2.976-7.688-4.77v.121c5.316,3.683,20.937,14.121,28.067,18.537.2.621-5.711-3.157-2.559-.716,11.573,6.789-1.931-1.121,9.968,6.651,1.163,1.2-5.816-3.649-8.747-5.314,1.233.863,5.071,3.545,8.282,5.641-9.189-5.745-23.263-15.621-33.987-22.289l-.14-.086.128.4c-.151-.19-.279-.38-.419-.578-1.71-1.061-3.734-2.294-5.816-3.571l.186.354,14.272,9.316.058.155-14.3-9.394v-.009L401.9,71.6l3.49,2.286-.209-.371c-6.246-3.8-13.05-7.9-13.725-8.324,2.78,1.863,8,5.339,14.388,9.557l-.384-.75.489.863c16.447,10.869,40.524,26.671,50.295,32.83,6.9,4.58-7.712-4.6-8.584-4.986-11.515-7.056,8.142,6.3,3.35,3.675l-5.967-4.425c-2.885-1.846.268.983,4.164,3.735-3.862-2.588-19.622-13.577-24.368-16.57-1.279-.474,3.28,2.976,9.549,7.556s14.283,10.282,20.029,14.2l-5.467-4.468-5.513-4.434c9.689,6.478,8.98,7.09,20.53,14.923Zm-181-36.556-1.966-1.613C282.948,80.652,284.634,82.42,283.006,80.3ZM70.033,188.337l-1.966-1.648C69.7,188.786,71.127,190.709,70.033,188.337Zm357.936-62.581c4.048,3.89,0-.6-1.279-2.07C424.247,121.625,420.467,118.01,427.969,125.756Zm-10.841-24.385c2.931,2.277,4.28,3.217,1.9,1.1C417.035,100.957,416.652,100.793,417.128,101.371ZM293.276,190.4c.465,1.035,1.035,2.225,1.64,3.407l1.582.794Zm-10.364,3.217c-1.617-.707-3.385-1.5-5.188-2.338.163.44.337.863.512,1.337.279.716.582,1.441.884,2.191a45.354,45.354,0,0,1,6.758,4.537c-.9-1.734-1.919-3.744-2.954-5.736Zm-6.188,13.689q-.43-.776-.965-1.725c-1.349-.863-2.838-1.725-4.42-2.665.163,1.026,0,1.527-.721,1.225v.06l.128.069,5.967,3.226Zm-17.145,4.106-.349-.172.14.328A.383.383,0,0,0,259.58,211.411Zm-98.868-48.46-.849-1.242c.1.259.2.509.291.75.279.371.489.561.558.509Zm112.511-38.437.209.242c0-.474.07-.526.163-.587a.263.263,0,0,0,.1-.1c-.372-.638-.71-1.225-.965-1.725l-1.3-.457c.384.5.954,1.328,1.791,2.648ZM361.03,58.88l.7.44c-2.8-2.941-5.653-5.848-3.908-4.166.442.354,2.082,1.932,4.187,3.994l-.256-.405c-3.652-3.554-6.013-5.857-1.524-1.725l1.3,1.346c-.326-.518-.663-1.061-.989-1.622.9,1.182,1.652,2.122,2.326,2.907l.3.285,1.233,1.156,2.268,1.63-.093-.095c-5.071-3.856-3.71-3.355-3.489-3.666l-2.163-2.251c-.977-.794-2.326-1.872-4.339-3.347l3.675,2.786c-2.861-2.967-5.455-5.659-7.63-7.893L357.2,53.8l-4.827-4.408c1.07,1.328,3.141,3.623,5.816,6.5l.081.06h-.058ZM371.5,44.837c3.862,2.122,4.222,2.234,5.816,3.088L375.569,46.2c-1.163-.638-2.594-1.475-4.571-2.588l4.42,2.441-.872-.863-.989-.526-4.327-2.588,5.13,2.916-1.047-1.018-5.664-3.3c.919.992,1.861,2.01,2.768,3l3.234,1.837c-1.163-.621-2.652-1.441-2.989-1.57Zm7.781.173.709.388-1.163-1.156-3.047-1.622.9,1.035.442.233.349.207-.768-.414.617.716c.744.38,2.059,1.1,3.4,1.846v-.138l-.4-.4L377.43,44.07l2.233,1.182.361.216v-.06l-.3-.155Zm2.954,1.863-1.384-.794.081.311h0L383.4,47.8a8.029,8.029,0,0,1-2.4-.863v.121c.291.216.733.526,1.628,1.087,2.245,1.07,4.746,2.51,6.618,3.6l-2.14-2.182,2.605,2.458c1.849,1.078,2.908,1.725,2.094.983.535.328,1.163.69,1.791,1.061-1.407-1.423-2.617-2.7-3.711-3.882l-.116-.069h.093l-.244-.267-4.536-2.683c1.163.69,2.7,1.5,4.152,2.277-1.314-1.432-2.5-2.734-3.676-4.011l-1.721-.863c.081.19.151.4.233.6.965.535.721.405,0,.043.1.276.221.535.314.863-.4-.466-.756-.863-1.093-1.216l-1.791-.932-1.047-.612a1.244,1.244,0,0,0-.128.423c5.723,5.84,2.989,3.7.268,1.527l-.1-.052.221.863A10.246,10.246,0,0,1,382.234,46.873ZM377.663,42.9l.349.19c-.2-.138-.314-.2-.361-.19Zm3.373,2.45h0l.3.285Zm-.768-.707.2.173h0l-.1-.1Zm.279.25.465.431h0l-.465-.449Zm0,.19Zm15.644,11.455-.082-.086v.069h0Zm-10.178-5.943c.244.276.43.492.57.673L391.539,54l-1.756-1.8c-2.326-1.354-4.792-2.778-8.014-4.589.768.656.907.863-.267.311l-.279-.181v.06l.256.121.837.569-1.07-.638h0l.128.578,4.653,2.588a.743.743,0,0,1-.012-.423Zm3.966,72.3.43.863.465.405-.186-.707Zm1.082,1.967-.221-.2c.174.362.314.681.419.932Zm-5.537-5.521-.337-.276a5.686,5.686,0,0,0,.465.474ZM341.977,70.171l.174.112a2.381,2.381,0,0,1-.2-.345l-.465-.423ZM372.522,45.7c1.163.518.5.121-.931-.707l.3.336.628.371-.512-.242.3.336.71.4-.628-.293.419.483c2.443,1.458,5.932,3.537,4.769,2.864,2.245,1.518-1.291-.587-4.536-2.588l.454.535h.2c2.175,1.441,4.653,2.872,7.409,4.485l-2.466-2.432-2.571-1.423c.512.311.4.242-.151-.086l-.442-.25.291.147Zm19.32,11.766v.19c.523.311,1.012.6,1.454.863l-.326-.276-.849-.552c0,.112,0,.06-.128-.086Zm0,.388h0L392.1,58Zm-.779-.483-.989-.621.3.259.779.457ZM383.4,73v-.112l-4.874-4.132,2.943,2.847C380.954,71.129,381.606,71.6,383.4,73ZM264.1,197.877l-.361-.423-.523-.242v.095q.421.3.884.569Zm11.55-14.871c.651.44,1.4.914,2.21,1.415-.593-.983-1.163-1.811-1.582-2.4a.746.746,0,0,0-.337,0l.163.362-.279-.319c-.2.086-.314.311-.361.647ZM352.562,62.115l.1.06-.919-.914Zm21.355,1.363L376.1,65.2l-.349-.345c-1.826-1.51-1.7-1.458-.837-.819l-1.559-1.527-.43-.328.326.242L371,60.208c3.245,4.563,1.256.914,2.92,3.278Zm-5.153-19.469c-.814-.69-1.163-.863-.593.086l.617.794c.477.233,1.163.612,2.14,1.121-.779-.75-1.535-1.449-2.094-1.932-.093-.06-.116-.086-.081-.069Zm9.4,6.409c-1.721-.863-3.106-1.665.419.259Zm-3.117-.975a.178.178,0,0,1,0,.181l2.012,1.216Zm-2.326-1.725c-1.64-1.035-3.815-2.432-2.9-1.949l-.64-.414c.838,1.052,1.849,2.251,2.989,3.562.779.414,2.012,1.1,3.9,2.174,5.455,3.381,1.431,1.026-2.7-1.389.779.518,1.7,1.173,2.582,1.863,4.269,2.415,4.245,2.156,3.024,1.2S375.15,50,374.918,49.642a.669.669,0,0,1-.256,0c.558.612-.4-.345-1.733-1.673l-.628-.44.477.3Zm15.912,22.315-6.665-5.107c.931.863,1.163,1.026-.1-.069h0l-1.873-1.432.07.138-.116-.173-.558-.431.535.388-.454-.707-1.989-1.863.1.664,2.036,2.217.8.6-.361-.707.558.863c3.129,2.355,5.653,4.192,8.549,6.245Zm-13.6-18.658c-.582-.405-1.163-.768-1.722-1.13l.872.983.442.276C376.058,52.247,375.837,51.988,375.034,51.376Zm5.944,7.22,1,1.061c1.256.69,1.57.768-.779-.914Zm-5.955-.078.361.25-.71-.7Zm2.257,2.588-.3-.8-1.163-1.156-.616-.466c.465.6,1.221,1.432,2.082,2.424Zm3.431,3.718-.14-.276-.489-.388Zm.721-.38-1.7-1.561.256.509Zm-15.307-9.161a7.487,7.487,0,0,0,1.745,1.458Zm2.571,2.588,1.57,1.518c-.244-.423-.535-.863-.849-1.406l-.826-.7A.957.957,0,0,1,368.695,57.871Zm2.105,2.044,2.885,2.786q1.973,1.467,4.141,2.778c-1.082-1.026-2.14-2.018-3.175-2.959-1.454-1.3-3.245-2.847-5.118-4.434.489.75.907,1.354,1.268,1.863Zm14.5,19.408-2.466-2.269A7.747,7.747,0,0,0,384,78.78l2.885,2.553.558.483-.186-.311.419.509c3.047,2.6,4.525,3.778-2.361-2.648Zm-9.782-14.836,1.815,1.372c2.547,1.932,4.653,3.45-3.338-2.855Zm1.256,1.216.209.207,1.57,1.259Zm-31.847,8.384.477.63,1.756,1.544v-.069l-.616-.725c.07.362-.616-.285-1.593-1.328Zm39.361-5.512c.872.6,1.931,1.363,3.257,2.32,5.385,3.985-3.036-2.7-3.175-2.959l5.816,4.382h0c-7.8-6.211-5.967-4.882-9.305-7.565l.419.647c.931,1.044,1.954,2.122,3.013,3.226Zm0-2.717a9.3,9.3,0,0,0-2.257-1l5.781,4.227-.209-.25,1.7,1.328h0c-3.385-2.64-1.9-1.725-.256-.681h0c-1.919-1.449-3.454-2.605-4.722-3.571Zm4.839-9.713-1.082-.673.523.483.663.38Zm-31.672-8c.779.794,1.826,1.837,3.059,3.062.942.63,2.559,1.725,3.792,2.588-1.024-.647-2.105-1.346-3.315-2.156,1.466,1.449,3.176,3.14,5.095,5.012q1.029.673,1.64,1.009l.6.733-.9-.776h-.384l1.338,1.3c1.047.863,2,1.673,2.931,2.441-.244-.509-.558-1.1-.965-1.811l-1.663-1.639c-.081.138-.372.078-.965-.242l-2.943-3.519.093.069.256.207-.163-.129-.093-.069-.1-.086h0l-.454-.319.361.224C360.983,50.97,357.878,48.495,357.459,48.15Zm6.3,12.576-.361-.354.221.25ZM223.29,138.359c.1.431.233.932.4,1.484l.64.112a.787.787,0,0,0-.081-.414l-.651-1.1ZM263.279,200.2l-1.4-2.648-.954-.535a17.7,17.7,0,0,0,1.849,2.916Zm0,.371.547.673-.256-.492Zm1.326.354,2.163,1.182c-.512-.863-1.024-1.786-1.524-2.674l-1.512-.863Zm6.479.863,2.978,1.579L271,200.706l-.3-.129c.151.423.279.828.384,1.2Zm-1.4-4.158a5.08,5.08,0,0,0-.256-.656l-.1-.086.279.69Zm5.432.664,1.594,1.035c0-.267-.523-.992-.209-.923l-.512-.466-1.431-.716.4.863Zm-.093-5.874-1.245-2.993-3.28-1.57c.43.819,1.082,1.872,1.838,3.028l1.256.716Zm3.966-3.925-.454-.6-.837,1.794,4.339,2.26c-.593-1.13-1.163-2.234-1.768-3.3l-1.8-.992Zm15.47-12.076-.081-.311h0Zm88.12-56.439h0l-.43-.38Zm-1.163-2.01-.07-.121v.086Zm2.757-43.9c-1.163-1.052-1.977-1.768-2.431-2.191l2.8,2.7.186.155Zm12.5-10.894c1.163.768,2.489,1.725,4.048,2.743l-.291-.759c-2.838-1.7-5.618-3.338-3.815-2Zm4.373,1.8-.209-1.182-4.036-2.381.582.518-.71-.587q-2.326-1.38-4.769-2.76h0l1.012,1.078,1.221.94c2.373,1.484,4.862,3.062,6.851,4.347Zm-.291-2.691-.093-.863-4.943-2.812-.477-.233.593.492-1.163-.742c-1.524-.664,2.094,1.639,6.025,4.132Zm-14.481-8.522c.477.474.989.966,1.547,1.492l1.256.75-.233-.414.872.8,1.4.863-.081-.293c-1.291-.906-2.408-1.682-4.815-3.226ZM384.56,51.9l-.233-.129h0Zm-3.49-4.089-.384-.069.5.526Zm-2.326-1.924q1.032.674,2.152,1.268v-.069l-2.152-1.2-.163-.095c.407.207.244.121-.209-.129h0Zm2.035.863a19.28,19.28,0,0,0-3.3-2.148l.826.957q1.408.7,2.478,1.19Zm.384.526.6.293-.616-.345Zm11.294,7.185,2.768,1.518L394.68,55l-.093-.095c-1.466-.863-2.826-1.6-4.187-2.389Zm-11.5-8.074Zm-.314-.457-.349-.2.384.38Zm-.43,1.311.814.414v-.112l-1.745-1.173c.291.285.628.587.919.888ZM261.057,98.412l.931,1.5,1,.794-.081-.173.233.293.407.319-.244-.509Zm11.736,20.521c.163.474.43,1.208.744,2.07l.256.233.651.38-.2-.656Zm-40.094,92.2,2.943,2.131h0c-1.093-1.121-2.21-2.243-3.327-3.338Zm7.084-5.788a16.81,16.81,0,0,0,2.687,2.32c-.174-.4-.349-.811-.535-1.234l-1.954-1.553c-.058.173-.128.328-.2.492Zm25.845-2.053,3.164,2.208c-.454-.759-.931-1.553-1.4-2.355l-2.547-1.613.57,1.527Zm12.19-1.035,1.5.863-.64-1.656-2.117-1.121c.5.716.919,1.354,1.256,1.924ZM295.265,178.7a25.736,25.736,0,0,0,2.571,1.285,15.842,15.842,0,0,0-2.571-3.079,1.414,1.414,0,0,0-.547.31l.151.414c.57.19.361.19.081.233Zm79.792-40.671-.477-1.13-.593-.457.3.863Zm10.108-7.763.221.19q-.43-.776-.849-1.553L384,128.43l.116.25a6.724,6.724,0,0,1,1.093,1.553ZM384,127.8c-.14-.276-.279-.561-.419-.863-.779-.543-.477-.121.43.8Zm-1.942-9.152c-.489-.94-.965-1.889-1.419-2.881l-.233-.207c.151.492.361,1.061.64,1.725l.8,1.147Zm2.547,1.673,3.094,2.64-1.361-2.225-2.745-2.484c.326.69.675,1.363,1.024,2.036Zm9.014,7.7,2.326,1.949a8.34,8.34,0,0,0-.512-1.182L392.7,126.3c.4.716.709,1.268.93,1.691Zm1.07-.569c-.244-.431-.523-.932-.861-1.51-.64-.492-1.419-1.1-2.524-1.975l.686,1.182Zm2.105,1.777.07.06-.384-.63Zm.4-2.087a5.167,5.167,0,0,0,.4,1.087l2.187,1.906c-.6-.863-1.163-1.553-1.559-2.087Zm-5.955-5.176a2.423,2.423,0,0,0,.256.863l1.035.932-.326-.543c-.372-.535-.6-.863-.756-1.044Zm-1.07-.923-2.047-1.777.442.863,1.931,1.777-.233-.449.419.612h0Zm9.026,1.2,1.372,1.233-.628-.949c-1.14-1.268-1.221-1.156-.733-.328Zm1.489-42.922V79.2c-2.431-1.8-4.653-3.45-6.409-4.779Zm6.234-11.861-4.432-2.691c.267.543.535,1.061.744,1.535l-1.163-.638c2.047,1.354,3.21,2.217,2.408,1.967a39.457,39.457,0,0,1-3.408-2.07l.07.656c1.919,1.285,4.141,2.743,6.56,4.313a31.831,31.831,0,0,1-.768-3.114Zm-.419-2.7h0l.477.267Zm-5.478-3.123c.151.388.326.785.512,1.182l3.338,2.122c.617.311,1.163.63,1.768.957l-.116-.69c-1.338-.785-2.245-1.328-2.966-1.768l2.966,1.725-.081-.44c-2.326-1.182-4.653-2.415-3.42-1.648-2.408-1.51.454-.069,3.42,1.6h0Zm-.558-1.725v.164l.419.242Zm-1.943-1.872-.989-.509,1.082,1.363-1.826-1.725L396.436,57c.07.224,0,.173-.1-.052l-.686-.354h-.151l-.07-.129L393.377,55.4l.989.932L392.7,55.171l-.3-.3-.779-.414c-1.814-1.139-3.408-2.1-4.885-2.967.279.414.209.518,0,.492a5.968,5.968,0,0,1-.558-.819c-1.652-.966-3.187-1.829-4.781-2.726v.129c.43.466.861.957,1.338,1.492l.209.112-.186-.086.5.552c.7.457,1.687,1.078,2.838,1.794-1.489-1.492.081-.492.617-.457a21.777,21.777,0,0,0,1.756,1.924l1.966,1.208c-.465-.863-.651-1.225.163,0v.069c2.117,1.3,4.246,2.588,5.816,3.606l4.083,2.2v-.328l-2.431-1.372c-3.152-1.993-6.328-3.985,2.4,1.009v-.173c-.884-.552-1.547-.975,0-.1v-.155C399.856,59.346,399.216,58.733,398.518,58.043Zm-1.931-1.975-.384-.216,1,1.259.9.492Zm-1.012-1,.116.147.081.043ZM382.629,41.939c2.094,1.863,3.49,3.114,2.117,1.078-1.221-1.354-2.466-2.588-3.7-3.726C381.548,40.119,382.094,40.99,382.629,41.939Zm1.163,2.346,1.512.811c-.733-.794-1.489-1.6-2.326-2.4a9.349,9.349,0,0,1,.849,1.6Zm-3.222-1.13h0l2.7,1.458q-.524-.543-.942-.906l-1.524-.742a.393.393,0,0,0-.2.2Zm-1.721-.923,1.047.863.209.216-.1-.431ZM371.766,37.8l.826.414c2.443,1.622,3.373,1.941-.628-.147.2.267.442.569.7.863l1.163.647-1.024-.518c.454.569.989,1.2,1.547,1.863l3.036,1.777-2.768-1.466,1.058,1.242,2.954,1.6-.407-.44.419.44,1.78.949h-.174l-1.431-.759,1.163,1.164c.361.2.3.173,0,0l.058.06.558.336a5.911,5.911,0,0,0-.1-.7l-.837-.25a4.349,4.349,0,0,0,.581.112l.256.138v-.095h-.012c-.837-.664-1.64-1.311-2.187-1.725l-.651-.38c0,.052.128.242.5.656-.279-.311-.489-.543-.628-.733l-.186-.112.174.086a2.25,2.25,0,0,1-.2-.293,44.958,44.958,0,0,1-4.013-3.157c.593.449,2.524,1.837,4.28,3.123a11.535,11.535,0,0,1,1.163.863l.675.5h.07L372.5,37.29C370.812,36.082,370.858,36.539,371.766,37.8Zm-3.9-1.234a11.627,11.627,0,0,0,1.57,1.406c-.337-.371-.616-.7-.872-1.009Zm-1.3-.69,1.163,1.147-.872-.966Zm-3.071.276,1.605.863,2.012,1.19q-1.035-.94-2.094-1.863c-3.013-2.329-2.943-1.88-1.512-.19Zm-7.212-8.307-.314-.328c-1.524-1.1-2.7-2.036.326.336Zm8.142,9.35,1.524.837-1.384-.707.756.863c1.5.863,2.8,1.63,3.641,2.139l-3.583-2.07,2.326,2.476,5.467,3.105-.5-.474-1.291-.776,1.093.587c-1.7-1.63-3.489-3.278-5.269-4.917L363.6,36.22a8.49,8.49,0,0,0,.814.949Zm-13.6,20.573c-.861-.863-1.628-1.622-2.326-2.346a15.6,15.6,0,0,0,2.326,2.346ZM272.014,92.685l2.326,2.062c-1.593-1.786-3.35-3.511-5-5.1,1.082,1.294,1.954,2.26,2.71,3.036Zm-4.653-.207a18.73,18.73,0,0,1,4.722,2.536,74.71,74.71,0,0,0-6.025-5.857c7.549,6.633,0-.811-3.49-4.408l3.338,5.27Zm-6.723,6.357.884.7-.814-1.466-.768-.759c.279.535.489,1.026.733,1.535Zm10.282,17.493.9,3.631c.14-.147.593.095,1.338.716-.128-.543-.291-1.165-.477-1.889Zm-1.512,3.243a16.134,16.134,0,0,0,1.419,2.1c0-.2,0-.293.14-.25Zm-9.794-10.679c.837.966,2.024,2.484,3.92,5.176-2.222-3.2-2.885-4.554-2.908-5.176Zm-7.7,4.011-.174-.38c-1.349-1.277-2.28-2.372.163.38ZM240.7,115.587a12.445,12.445,0,0,0,2.129,1.975l1.047.388c1.163-.078.872-2.9,1.047-4.684l-.907-.474c.233,1.225.116,1.82-1.082,1.8,1.791,3.588.837,2.467-.838.224Zm-4.583-1.044.6,1.061c1.07.785,1.559.673,1.756.129q-1.151-.543-2.373-1.19Zm-9.6,13.042.558.336a2.5,2.5,0,0,0-.128-.526l-.419-.8-.675-.328a14.7,14.7,0,0,1,.663,1.32Zm-68.1,32.649c.419.561.826,1.1,1.163,1.561a3.1,3.1,0,0,0-.14-.647l-.081-.121ZM65.567,263.02q-.489-1.3-.989-2.588a2.028,2.028,0,0,0-.5.483h0a19.914,19.914,0,0,0,1.489,2.1Zm74.558-6.676a42.809,42.809,0,0,0-1.163-5.659c-2.082-3.028-2.536-1.872-2.408.725,1.3,2.562,2.454,4.6,3.571,4.925Zm86.841-5.822c-2.605-2.062-5.979-5.9-.209,2.631,3.571,4.149.942-.932.209-2.631Zm10.678-33.494c-1.524-1.5-3.047-3.01-4.536-4.52l.547,1.855c2.07,1.932,3.978,3.666,4.339,5.055l1.163,1.147C238.853,219.752,238.306,218.381,237.643,217.027Zm3.222-.164c.849.552,1.582,1.018,2.175,1.354-.744-.776-1.163-1.052-1.826-1.82-.384-.06-.477.121-.349.474Zm2.7.612-.756-.423.733,1.432c1.221.69,1.442.474.023-1.035Zm-.081-7.108c-1.245-1.648-2.408-3.3-3.734-4.969a5.068,5.068,0,0,0-.477,1.121c1.291,1.544,2.826,3.261,4.49,5.089a8.149,8.149,0,0,0-.279-1.225Zm16.773,2.338c-.256-.207-.442-.371-.593-.5.268.612.547,1.225.791,1.8l.628.543Zm-.256-.561-.384-.863a1.586,1.586,0,0,0,.372.871Zm5.816-7.116-1.489-1.518-.547-.336.3.621c.7.543,1.338,1.078,1.908,1.579Zm3.792,1.777-1.71-1.07c1.268,1.354,2.466,2.648,3.408,3.77-.535-.785-1.1-1.7-1.71-2.691Zm8.759,5.469a14.937,14.937,0,0,1-1.3-2.959l-3.757-2.424-.71-.449L273.933,208c.07.526-.186.69-.57.725C275.55,210.264,277.283,211.506,278.365,212.274Zm3.617-4.925a27.491,27.491,0,0,0-2.012-2.519l-.291-.776-1.163-.423a3.658,3.658,0,0,1,.5,2.277c1.128.552,2.129,1.044,2.966,1.449Zm3.827-4.736c-1.314-.6-2.7-1.242-4.106-1.915l.081.173,1.721,1.975-.4-.086-1.012-1.216q.442.958.907,1.906l3.245,2.165c-.582-.371-1.652-.983-3.047-1.725q.407.863.826,1.682c.71.354,1.314.63,1.756.811l-1.675-.638c1.163,2.277,2.326,4.425,3.35,6.271l-1.07-6.167v-.129l-.128-.086.128.078Zm.709-2.044-.2-.388a.567.567,0,0,1-.454.19Zm4.385,4.261-.477-1.346c-.675.276-1.024.6.489,1.354Zm-1.163-3.278-.768-2.139c-1.163-1.63-1.617-.518-1.361,1.492Zm4.8-7.953c-1.163-1.725-2.222-3.632-3.338-5.667l-.442-.207c-.349.681-.512,1.354-2.908-1.346l-1.466-.681c.186.543.186.863.058.94l2.5,4.071c1.838.966,3.722,1.941,5.595,2.9Zm9.107,4.425-2.012-2.415-1.326-1.044-4.385-3.355a30.351,30.351,0,0,0,2.012,3.89.635.635,0,0,1-.081.164c2.012.992,3.955,1.924,5.792,2.769Zm.407-.509c.233.414.268.664,0,.7l2.012.906Zm-6.362-6.556-2.012-.94a1.237,1.237,0,0,0,0,.612c1.058.466,1.989.914,2.838,1.337Zm1.675-8.626c-.291-.44-.558-.863-.837-1.337-.8-.293-1.768-.673-2.78-1.07l.326.949c1.082.518,2.21,1.027,3.292,1.475Zm-.279-3.174q-.407-.405-.791-.759a13.377,13.377,0,0,1,.965,1.786c-.5-.7-1.279-1.786-1.931-2.588a5.508,5.508,0,0,0-.651-.431l1.861,3.114c.6.267,1.291.552,2.082.863.349.535-.337.44-1.524,0l.791,1.337c1.279.423,2.536.8,3.7,1.087-1.7-1.484-3.21-3.105-4.5-4.391ZM319.54,159.2l-.372-.449,1.07,1.656c-.2-.354-.442-.75-.7-1.19Zm-1.593-4.606v0Zm5.688,3.6.093-.078a17.307,17.307,0,0,0-2.466-3.261c.663,1.035,1.477,2.217,2.385,3.364Zm35.418,7.884c.093.242.1.405,0,.449.872.733.71.423.012-.431Zm21.053-11.145c4.187,3.8.1-.664-1.163-2.148-2.524-1.967-6.49-5.486,1.175,2.165Zm-.616-12.214c-.442-1.13-.849-2.113-1.163-2.976l-3.315-2.588.372,1.164a45.925,45.925,0,0,0,4.117,4.425Zm2.024,1.949c-.1-.5-.174-.94,0-.664-.314-.8-.663-1.682-1.024-2.588l-1.663-1.268a21.132,21.132,0,0,1,.965,2.847Zm-3.745-9.583c-.163-.362-.326-.69-.477-.992l-.349-.259v.043l.186.543Zm8.142-2.225,1.338,1.113-1.419-1.277ZM388,135.141l-.849-.768,1.105,1.294Zm-1.361-2.588-.209-.38-.267-.216a3.787,3.787,0,0,0,.477.647Zm.081-1.8v.06c.186.414.361.8.523,1.182l4.815,4.227c-.186-.569-2.478-2.8-5.339-5.417Zm3.222,2.295c-.407-.561-.942-1.346-1.617-2.415-.2-.457-.4-.863-.593-1.32a5.838,5.838,0,0,0-2.326-1.32l.407.863a10.888,10.888,0,0,0,1.163,1.216l-.977-.914.244.535a26.609,26.609,0,0,1,2.629,2.269Zm-.71-7.712-1.082-1.725-3.4-3.1.675,1.251Zm6.665,5.331-1.652-1.5c.186.492-.186.086.4,1.3l1.3,1.225a1.3,1.3,0,0,1-.047-.975Zm2.931,1.725-.721-1.173-.372-.345c.221.405.4.75.547,1.061Zm.64.543.535.457-.477-.863-.442-.431a6.045,6.045,0,0,0,.372.871Zm1.419,1.993-.6-1.044c-.535-.259-.547-.1.558,1.078Zm1.675-.949c-.838-1.2-1.652-2.346-2.326-3.355l-2.222-1.673.1.216c.582.776,1.163,1.639,1.8,2.588,1.163.975,2.059,1.725,2.408,1.941ZM389,118.726l-.849-.776.884.863ZM402.473,128.9l.744.535-2.92-4.209c.244.474.663,1.182,1.163,2.01,1.047,1.113,1.477,1.725.965,1.579Zm-.931-4.046-1.279-1.044c1.3,1.949,3.257,4.744,4.594,6.789l.872.63Zm7.642,7.211-.5-.716.675.863,1.047.69c-.744-1.13-1.9-2.769-3.024-4.382l-.733-.7c-.093.164-.4-.181-.931-.863l-2.326-2.182c1.163,1.725,2.71,4,4.35,6.262.547.423,1,.768,1.442,1.061Zm3.792.863-1.291-1.009a14.125,14.125,0,0,1,1.163,2.01q-.779-1.156-1.628-2.338l-1.291-.992.942,1.492,1.3,2.113a21.55,21.55,0,0,1,1.756,1.518c-.965-.647-1.291-.8-1.163-.656h0c.384.569,4.292,3.821,5.676,5.176-1.5-2.044-3.431-4.615-5.478-7.332Zm4.059-5.555c.174.336.419.716.686,1.121l2.978,2.372c-2.664-3.028-4.734-5.322-3.676-3.485ZM395.924,83.619c-2.175-1.872-3.92-3.364-4.978-4.209l4.827,4.736,4.234,3.45c-1.314-1.259-2.652-2.562-4.094-3.968Zm19.239,6.168-1.64-1.2c.07.25.14.474.186.647l-.512-.863-7.7-5.65.384.38-.558-.509-2.838-2.087.128.293c3.687,2.838,8.235,6.349,12.864,9.946C415.384,90.4,415.267,90.1,415.163,89.787ZM407.823,78.5l-5.316-3.761,1.163,1.285L401.926,74.3c-5-3.528-9.584-6.728-13.248-9.264h0l5.688,4.244L391.7,67.558c.547.423,1.093.863,1.652,1.32-.512-.328-.989-.647-1.466-.975l.279.207c3.908,2.838,9.863,7.082,16.377,11.74Zm16.947,47.891v.19c.093.052.07-.026-.046-.19Zm-.558-18.114a52.051,52.051,0,0,0,4.048,3.381c-1.326-1.026-2.7-2.2-4.153-3.373Zm21.274-8.626a33.244,33.244,0,0,0,4.536,2.683c-1.361-.707-2.954-1.665-4.583-2.674ZM424.049,71.517l-4.176-2.312a32,32,0,0,0,5.316,3.1C424.107,71.672,425.131,72.164,424.049,71.517Zm-1.163,1.725-9.305-5.219,7.363,4.313Zm-7.9-2.8,2.768,1.259c-1.547-.863-2.419-1.441-3.071-1.872-.477-.009-2.454-.932.267.647Zm-1.652-1.665a5.321,5.321,0,0,0,1.338,1.052c.233.069.128-.112-1.361-1.018Zm9.991,5.331-.837-.233,2.78,1.3Zm-12.574-2.432,2.326,1.8c3.059,1.906,5.013,2.993,3.885,2.156C414.884,74.26,413.779,73.484,410.754,71.672ZM440.531,88.6l-4.2-2.734c-1.966-1.052-3.99-2.26-6.979-4.02Zm5.7,4.667c-3.036-1.9-5.316-3.735-8.142-5.029,3.082,1.932,8.445,5.866,8.119,5.055Zm5.793,17.95c-3.966-2.933-4.536-2.674-7.944-5.227,4.024,3.226,1.442,1.639,12.876,9.488C461.5,117.993,446.4,107.9,452.023,111.213Zm-7.944-5.227c-.628-.509-1.419-1.121-2.478-1.941.942.811,1.733,1.423,2.419,1.941Zm-3.327,30.251,5.467,4.813-2.163-2.165c-2.5-2.277-2.78-2.4-3.35-2.648Zm-7.34,1.32.279.129-7.956-8.22Zm4.28,13.413c.419.181-.279-.94-.4-1.389-1.093-.638-7.735-7.927.442,1.4Zm-.291-1.544c-.128-.06-.151,0-.116.155s.256.069.163-.147Z" transform="translate(3671.087 1821.588) rotate(3)"/>
    <g class="cls-5" transform="matrix(1, 0, 0, 1, 2934.99, 1603.59)">
      <text id="Family_Recipes-2" data-name="Family
Recipes" class="cls-2" transform="translate(971.2 353.77)"><tspan x="-111.133" y="0">Family</tspan><tspan x="-125.383" y="57">Recipes</tspan></text>
    </g>
    <g class="cls-4" transform="matrix(1, 0, 0, 1, 2934.99, 1603.59)">
      <text id="DATABASE-2" data-name="DATABASE" class="cls-3" transform="translate(831.86 477.21)"><tspan x="0" y="0">DATABASE</tspan></text>
    </g>
  </g>
</svg>
